;TYPE=PLATED
;Layer: PTH_Through
;EasyEDA Pro v2.2.47.7, 2026-09-29 16:11:14
;Gerber Generator version 0.3
M48
METRIC,LZ,0000.00000
;Hole size 1 = 0.88900 METRIC
T01C0.88900
;Hole size 2 = 0.91440 METRIC
T02C0.91440
;Hole size 3 = 0.95001 METRIC
T03C0.95001
;Hole size 4 = 1.10002 METRIC
T04C1.10002
;Hole size 5 = 2.00000 METRIC
T05C2.00000
%
G05
G90
T01
X29.5402Y-20.9804
T02
X25.04191Y-24.638
X12.04199Y-24.638
X25.04191Y-28.956
X12.04199Y-28.956
T03
X29.5275Y-56.547
X29.5275Y-54.007
X29.5275Y-51.467
X29.5275Y-48.927
X29.5275Y-46.387
X29.5275Y-43.847
X29.5275Y-41.307
X29.5275Y-38.767
X29.5275Y-36.227
X29.5275Y-33.687
X29.5275Y-31.147
X29.5275Y-28.607
X29.5275Y-26.067
X29.5402Y-23.5204
X54.8767Y-56.547
X54.8767Y-54.007
X54.8767Y-51.467
X54.8767Y-48.927
X54.8767Y-46.387
X54.8767Y-43.847
X54.8767Y-41.307
X54.8767Y-38.767
X54.8767Y-36.227
X54.8767Y-33.687
X54.8767Y-31.147
X54.8767Y-28.607
X54.8767Y-26.067
X54.8894Y-23.5204
X54.8894Y-20.9804
T04
X12.573Y-33.274
X15.113Y-33.274
X17.653Y-33.274
X20.193Y-33.274
X22.733Y-45.847
X20.193Y-45.847
X17.653Y-45.847
X15.113Y-45.847
X12.573Y-45.847
X12.7Y-38.989
X15.24Y-38.989
X17.78Y-38.989
X20.32Y-38.989
X22.606Y-53.086
X20.066Y-53.086
X17.526Y-53.086
X14.986Y-53.086
X12.446Y-53.086
X19.304Y-19.13687
X19.304Y-14.13713
T05
X12.26312Y-11.04011
X55.83136Y-11.16711
X12.4046Y-60.95111
X55.97284Y-60.95111
M30