G04 Layer: TopSolderMaskLayer*
G04 EasyEDA Pro v2.2.47.7, 2026-09-29 16:11:14*
G04 Gerber Generator version 0.3*
G04 Scale: 100 percent, Rotated: No, Reflected: No*
G04 Dimensions in millimeters*
G04 Leading zeros omitted, absolute positions, 4 integers and 5 decimals*
G04 Generated by one-click*
G04 Object Configs: Pad,Via,Track,Text,Image,Dimension,BoardOutline,BoardCutout,CopperFilled,SolidRegion,FPCStiffener,Line,PlaneZone,ComponentProperty,ComponentSilkscreen,TearDrop*
G04 Layer Configs: 1,2,3,4,5,6,7,8,9,10,11,13,14,56*
G04 Copper Areas: 0*
%FSLAX45Y45*%
%MOMM*%
%AMRoundRect*1,1,$1,$2,$3*1,1,$1,$4,$5*1,1,$1,0-$2,0-$3*1,1,$1,0-$4,0-$5*20,1,$1,$2,$3,$4,$5,0*20,1,$1,$4,$5,0-$2,0-$3,0*20,1,$1,0-$2,0-$3,0-$4,0-$5,0*20,1,$1,0-$4,0-$5,$2,$3,0*4,1,4,$2,$3,$4,$5,0-$2,0-$3,0-$4,0-$5,$2,$3,0*%
%ADD10RoundRect,0.09618X-0.85271X0.85271X0.85271X0.85271*%
%ADD11C,1.8016*%
%ADD12C,1.9032*%
%ADD13RoundRect,0.1836X-0.8598X-0.8598X-0.8598X0.8598*%
%ADD14C,2.1016*%
%ADD15RoundRect,0.19263X-1.75528X-1.75528X-1.75528X1.75528*%
%ADD16C,3.70319*%
%ADD17C,1.6333*%
%ADD18C,1.6256*%
G75*


G04 Pad Start*
G54D10*
G01X1257300Y-3327400D03*
G54D11*
G01X1511300Y-3327400D03*
G01X1765300Y-3327400D03*
G01X2019300Y-3327400D03*
G54D12*
G01X2952750Y-5654700D03*
G01X2952750Y-5400700D03*
G01X2952750Y-5146700D03*
G01X2952750Y-4892700D03*
G01X2952750Y-4638700D03*
G01X2952750Y-4384700D03*
G01X2952750Y-4130700D03*
G01X2952750Y-3876700D03*
G01X2952750Y-3622700D03*
G01X2952750Y-3368700D03*
G01X2952750Y-3114700D03*
G01X2952750Y-2860700D03*
G01X2952750Y-2606700D03*
G01X2954020Y-2352040D03*
G54D13*
G01X2954020Y-2098040D03*
G54D12*
G01X5487670Y-5654700D03*
G01X5487670Y-5400700D03*
G01X5487670Y-5146700D03*
G01X5487670Y-4892700D03*
G01X5487670Y-4638700D03*
G01X5487670Y-4384700D03*
G01X5487670Y-4130700D03*
G01X5487670Y-3876700D03*
G01X5487670Y-3622700D03*
G01X5487670Y-3368700D03*
G01X5487670Y-3114700D03*
G01X5487670Y-2860700D03*
G01X5487670Y-2606700D03*
G01X5488940Y-2352040D03*
G01X5488940Y-2098040D03*
G54D11*
G01X2273300Y-4584700D03*
G01X2019300Y-4584700D03*
G01X1765300Y-4584700D03*
G01X1511300Y-4584700D03*
G54D10*
G01X1257300Y-4584700D03*
G01X1270000Y-3898900D03*
G54D11*
G01X1524000Y-3898900D03*
G01X1778000Y-3898900D03*
G01X2032000Y-3898900D03*
G01X2260600Y-5308600D03*
G01X2006600Y-5308600D03*
G01X1752600Y-5308600D03*
G01X1498600Y-5308600D03*
G54D10*
G01X1244600Y-5308600D03*
G54D14*
G01X1226312Y-1104011D03*
G01X5583136Y-1116711D03*
G01X1240460Y-6095111D03*
G01X5597284Y-6095111D03*
G54D15*
G01X1930400Y-1913687D03*
G54D16*
G01X1930400Y-1413688D03*
G54D18*
G01X2504199Y-2463800D03*
G01X1204201Y-2463800D03*
G01X2504199Y-2895600D03*
G01X1204201Y-2895600D03*
G04 Pad End*

M02*

