G04 Layer: DrillDrawingLayer*
G04 EasyEDA Pro v2.2.47.7, 2026-09-29 16:11:14*
G04 Gerber Generator version 0.3*
G04 Scale: 100 percent, Rotated: No, Reflected: No*
G04 Dimensions in millimeters*
G04 Leading zeros omitted, absolute positions, 4 integers and 5 decimals*
G04 Generated by one-click*
G04 Object Configs: Pad,Via,Track,Text,Image,Dimension,BoardOutline,BoardCutout,CopperFilled,SolidRegion,FPCStiffener,Line,PlaneZone,ComponentProperty,ComponentSilkscreen,TearDrop*
G04 Layer Configs: 1,2,3,4,5,6,7,8,9,10,11,13,14,56*
G04 Copper Areas: 0*
%FSLAX45Y45*%
%MOMM*%
%AMIconRect*4,1,4,0.28,-0.28,-0.28,-0.28,-0.28,0.28,0.28,0.28,0.28,-0.28,0*4,0,4,0.233333,-0.233333,0.233333,0.233333,-0.233333,0.233333,-0.233333,-0.233333,0.233333,-0.233333,0*%
%AMIconTriangle*4,1,3,-0.339593,0.240473,0.339593,0.240473,0,-0.37884,-0.339593,0.240473,0*4,0,3,-0.265673,0.19404,0,-0.27342,0.266233,0.19404,-0.265673,0.19404,0*%
%AMIconStar6*4,1,12,0.12068,0.20888,0.298527,0.172713,0.241313,0,0.298527,-0.17206,0.12068,-0.208227,0,-0.344073,-0.120073,-0.208227,-0.298573,-0.17206,-0.240707,0,-0.298573,0.17206,-0.120073,0.20888,0,0.344073,0.12068,0.20888,0*4,0,12,-0.000467,0.273467,-0.090067,0.171733,-0.237533,0.136733,-0.193667,-0.007467,-0.237533,-0.1372,-0.090067,-0.171733,-0.000467,-0.273933,0.090067,-0.171733,0.237533,-0.1372,0.194133,0.007,0.237533,0.1372,0.090067,0.171267,-0.000467,0.273467,0*%
%AMIconStar4*4,1,8,-0.311733,0.311733,0,0.202533,0.311733,0.311733,0.202533,0,0.311733,-0.311733,0,-0.202533,-0.304407,-0.311733,-0.202533,0,-0.311733,0.311733,0*4,0,8,0.233333,-0.233333,0.1512,0,0.233333,0.233333,0,0.1512,-0.233333,0.233333,-0.1512,0,-0.233333,-0.233333,0,-0.1512,0.233333,-0.233333,0*%
%ADD10IconRect*%
%ADD11C,0.616X0.522667*%
%ADD12IconTriangle*%
%ADD13IconStar6*%
%ADD14IconStar4*%
G75*


G04 Drill Drawing Start*
G54D10*
G01X2954020Y-2098040D03*
G54D11*
G01X1226312Y-1104011D03*
G01X1240460Y-6095111D03*
G01X5583136Y-1116711D03*
G01X5597284Y-6095111D03*
G54D12*
G01X1204201Y-2895600D03*
G01X1204201Y-2463800D03*
G01X2504199Y-2895600D03*
G01X2504199Y-2463800D03*
G54D13*
G01X1244600Y-5308600D03*
G01X1257300Y-4584700D03*
G01X1257300Y-3327400D03*
G01X1270000Y-3898900D03*
G01X1498600Y-5308600D03*
G01X1511300Y-4584700D03*
G01X1511300Y-3327400D03*
G01X1524000Y-3898900D03*
G01X1752600Y-5308600D03*
G01X1765300Y-4584700D03*
G01X1765300Y-3327400D03*
G01X1778000Y-3898900D03*
G01X1930400Y-1913687D03*
G01X1930400Y-1413688D03*
G01X2006600Y-5308600D03*
G01X2019300Y-4584700D03*
G01X2019300Y-3327400D03*
G01X2032000Y-3898900D03*
G01X2260600Y-5308600D03*
G01X2273300Y-4584700D03*
G54D14*
G01X2952750Y-5654700D03*
G01X2952750Y-5400700D03*
G01X2952750Y-5146700D03*
G01X2952750Y-4892700D03*
G01X2952750Y-4638700D03*
G01X2952750Y-4384700D03*
G01X2952750Y-4130700D03*
G01X2952750Y-3876700D03*
G01X2952750Y-3622700D03*
G01X2952750Y-3368700D03*
G01X2952750Y-3114700D03*
G01X2952750Y-2860700D03*
G01X2952750Y-2606700D03*
G01X2954020Y-2352040D03*
G01X5487670Y-5654700D03*
G01X5487670Y-5400700D03*
G01X5487670Y-5146700D03*
G01X5487670Y-4892700D03*
G01X5487670Y-4638700D03*
G01X5487670Y-4384700D03*
G01X5487670Y-4130700D03*
G01X5487670Y-3876700D03*
G01X5487670Y-3622700D03*
G01X5487670Y-3368700D03*
G01X5487670Y-3114700D03*
G01X5487670Y-2860700D03*
G01X5487670Y-2606700D03*
G01X5488940Y-2352040D03*
G01X5488940Y-2098040D03*
G04 Drill Drawing End*

M02*

