G04 Layer: TopLayer*
G04 EasyEDA Pro v2.2.47.7, 2026-09-29 16:11:14*
G04 Gerber Generator version 0.3*
G04 Scale: 100 percent, Rotated: No, Reflected: No*
G04 Dimensions in millimeters*
G04 Leading zeros omitted, absolute positions, 4 integers and 5 decimals*
G04 Generated by one-click*
G04 Object Configs: Pad,Via,Track,Text,Image,Dimension,BoardOutline,BoardCutout,CopperFilled,SolidRegion,FPCStiffener,Line,PlaneZone,ComponentProperty,ComponentSilkscreen,TearDrop*
G04 Layer Configs: 1,2,3,4,5,6,7,8,9,10,11,13,14,56*
G04 Copper Areas: 29*
%FSLAX45Y45*%
%MOMM*%
%ADD10C,0.2032*%
%ADD11C,0.254*%
%ADD12R,1.7X1.7*%
%ADD13C,1.7*%
%ADD14C,2.0*%
%ADD15R,3.49999X3.49999*%
%ADD16C,3.49999*%
%ADD17C,1.5215*%
%ADD18C,1.524*%
G75*


G04 Copper Start*
G36*
G01X1362116Y-1102360D02*
G01X5448082Y-1102360D01*
G01X5447581Y-1125099D01*
G01X5450882Y-1147603D01*
G01X5457892Y-1169241D01*
G01X5468414Y-1189405D01*
G01X5482154Y-1207531D01*
G01X5498727Y-1223109D01*
G01X5517666Y-1235703D01*
G01X5538442Y-1244960D01*
G01X5560471Y-1250621D01*
G01X5583136Y-1252525D01*
G01X5605801Y-1250621D01*
G01X5627830Y-1244960D01*
G01X5648606Y-1235703D01*
G01X5667545Y-1223109D01*
G01X5684117Y-1207531D01*
G01X5697857Y-1189405D01*
G01X5708380Y-1169241D01*
G01X5715390Y-1147603D01*
G01X5718691Y-1125099D01*
G01X5718190Y-1102360D01*
G01X5755640Y-1102360D01*
G01X5755640Y-5781040D01*
G01X1026160Y-5781040D01*
G01X1026160Y-5654700D01*
G01X2831936Y-5654700D01*
G01X2833772Y-5675680D01*
G01X2839222Y-5696021D01*
G01X2848122Y-5715107D01*
G01X2860201Y-5732358D01*
G01X2875092Y-5747249D01*
G01X2892343Y-5759328D01*
G01X2911429Y-5768228D01*
G01X2931771Y-5773679D01*
G01X2952750Y-5775514D01*
G01X2973729Y-5773679D01*
G01X2994071Y-5768228D01*
G01X3013157Y-5759328D01*
G01X3030408Y-5747249D01*
G01X3045299Y-5732358D01*
G01X3057378Y-5715107D01*
G01X3066278Y-5696021D01*
G01X3071728Y-5675680D01*
G01X3073564Y-5654700D01*
G01X5366856Y-5654700D01*
G01X5368692Y-5675680D01*
G01X5374142Y-5696021D01*
G01X5383042Y-5715107D01*
G01X5395121Y-5732358D01*
G01X5410012Y-5747249D01*
G01X5427263Y-5759328D01*
G01X5446349Y-5768228D01*
G01X5466691Y-5773679D01*
G01X5487670Y-5775514D01*
G01X5508649Y-5773679D01*
G01X5528991Y-5768228D01*
G01X5548077Y-5759328D01*
G01X5565328Y-5747249D01*
G01X5580219Y-5732358D01*
G01X5592298Y-5715107D01*
G01X5601198Y-5696021D01*
G01X5606648Y-5675680D01*
G01X5608484Y-5654700D01*
G01X5606648Y-5633721D01*
G01X5601198Y-5613380D01*
G01X5592298Y-5594293D01*
G01X5580219Y-5577043D01*
G01X5565328Y-5562152D01*
G01X5548077Y-5550073D01*
G01X5528991Y-5541173D01*
G01X5508649Y-5535722D01*
G01X5487670Y-5533887D01*
G01X5487670Y-5533887D01*
G01X5466691Y-5535722D01*
G01X5446349Y-5541173D01*
G01X5427263Y-5550073D01*
G01X5410012Y-5562152D01*
G01X5395121Y-5577043D01*
G01X5383042Y-5594293D01*
G01X5374142Y-5613380D01*
G01X5368692Y-5633721D01*
G01X5366856Y-5654700D01*
G01X3073564Y-5654700D01*
G01X3071728Y-5633721D01*
G01X3066278Y-5613380D01*
G01X3057378Y-5594293D01*
G01X3045299Y-5577043D01*
G01X3030408Y-5562152D01*
G01X3013157Y-5550073D01*
G01X2994071Y-5541173D01*
G01X2973729Y-5535722D01*
G01X2952750Y-5533887D01*
G01X2952750Y-5533887D01*
G01X2931771Y-5535722D01*
G01X2911429Y-5541173D01*
G01X2892343Y-5550073D01*
G01X2875092Y-5562152D01*
G01X2860201Y-5577043D01*
G01X2848122Y-5594293D01*
G01X2839222Y-5613380D01*
G01X2833772Y-5633721D01*
G01X2831936Y-5654700D01*
G01X1026160Y-5654700D01*
G01X1026160Y-5223600D01*
G01X1123786Y-5223600D01*
G01X1123786Y-5393600D01*
G01X1125539Y-5404667D01*
G01X1130626Y-5414651D01*
G01X1138549Y-5422574D01*
G01X1148533Y-5427661D01*
G01X1159600Y-5429414D01*
G01X1329600Y-5429414D01*
G01X1329600Y-5429414D01*
G01X1340667Y-5427661D01*
G01X1350651Y-5422574D01*
G01X1358574Y-5414651D01*
G01X1363661Y-5404667D01*
G01X1365414Y-5393600D01*
G01X1365414Y-5223600D01*
G01X1363661Y-5212533D01*
G01X1358574Y-5202549D01*
G01X1350651Y-5194626D01*
G01X1340667Y-5189539D01*
G01X1329600Y-5187786D01*
G01X1159600Y-5187786D01*
G01X1148533Y-5189539D01*
G01X1138549Y-5194626D01*
G01X1130626Y-5202549D01*
G01X1125539Y-5212533D01*
G01X1123786Y-5223600D01*
G01X1026160Y-5223600D01*
G01X1026160Y-4499700D01*
G01X1136486Y-4499700D01*
G01X1136486Y-4669700D01*
G01X1138239Y-4680767D01*
G01X1143326Y-4690751D01*
G01X1151249Y-4698674D01*
G01X1161233Y-4703761D01*
G01X1172300Y-4705514D01*
G01X1342300Y-4705514D01*
G01X1353367Y-4703761D01*
G01X1363351Y-4698674D01*
G01X1371274Y-4690751D01*
G01X1376361Y-4680767D01*
G01X1378114Y-4669700D01*
G01X1378114Y-4520123D01*
G01X1398757Y-4540767D01*
G01X1392948Y-4560437D01*
G01X1390549Y-4580806D01*
G01X1391630Y-4601288D01*
G01X1396161Y-4621292D01*
G01X1404010Y-4640241D01*
G01X1414951Y-4657589D01*
G01X1428669Y-4672837D01*
G01X1444769Y-4685544D01*
G01X1462786Y-4695345D01*
G01X1462786Y-5193217D01*
G01X1442526Y-5201587D01*
G01X1424112Y-5213482D01*
G01X1408150Y-5228507D01*
G01X1395167Y-5246170D01*
G01X1385588Y-5265888D01*
G01X1379731Y-5287012D01*
G01X1377786Y-5308847D01*
G01X1379820Y-5330673D01*
G01X1385764Y-5351773D01*
G01X1395422Y-5371452D01*
G01X1408478Y-5389061D01*
G01X1424501Y-5404022D01*
G01X1442963Y-5415841D01*
G01X1463257Y-5424129D01*
G01X1484715Y-5428613D01*
G01X1506630Y-5429147D01*
G01X1528280Y-5425711D01*
G01X1548953Y-5418420D01*
G01X1567969Y-5407514D01*
G01X1584701Y-5393351D01*
G01X1598597Y-5376397D01*
G01X1609202Y-5357212D01*
G01X1616166Y-5336426D01*
G01X1619259Y-5314724D01*
G01X1619013Y-5308600D01*
G01X1631786Y-5308600D01*
G01X1633622Y-5329579D01*
G01X1639072Y-5349921D01*
G01X1647972Y-5369007D01*
G01X1660051Y-5386258D01*
G01X1674942Y-5401149D01*
G01X1692193Y-5413228D01*
G01X1711279Y-5422128D01*
G01X1731621Y-5427578D01*
G01X1752600Y-5429414D01*
G01X1773579Y-5427578D01*
G01X1793921Y-5422128D01*
G01X1813007Y-5413228D01*
G01X1830258Y-5401149D01*
G01X1845149Y-5386258D01*
G01X1857228Y-5369007D01*
G01X1866128Y-5349921D01*
G01X1871578Y-5329579D01*
G01X1873414Y-5308600D01*
G01X1885786Y-5308600D01*
G01X1887622Y-5329579D01*
G01X1893072Y-5349921D01*
G01X1901972Y-5369007D01*
G01X1914051Y-5386258D01*
G01X1928942Y-5401149D01*
G01X1946193Y-5413228D01*
G01X1965279Y-5422128D01*
G01X1985621Y-5427578D01*
G01X2006600Y-5429414D01*
G01X2027579Y-5427578D01*
G01X2047921Y-5422128D01*
G01X2067007Y-5413228D01*
G01X2084258Y-5401149D01*
G01X2099149Y-5386258D01*
G01X2111228Y-5369007D01*
G01X2120128Y-5349921D01*
G01X2125578Y-5329579D01*
G01X2127414Y-5308600D01*
G01X2139786Y-5308600D01*
G01X2141622Y-5329579D01*
G01X2147072Y-5349921D01*
G01X2155972Y-5369007D01*
G01X2168051Y-5386258D01*
G01X2182942Y-5401149D01*
G01X2200193Y-5413228D01*
G01X2219279Y-5422128D01*
G01X2239621Y-5427578D01*
G01X2260600Y-5429414D01*
G01X2281579Y-5427578D01*
G01X2301921Y-5422128D01*
G01X2321007Y-5413228D01*
G01X2338258Y-5401149D01*
G01X2338706Y-5400700D01*
G01X2831936Y-5400700D01*
G01X2833772Y-5421680D01*
G01X2839222Y-5442021D01*
G01X2848122Y-5461107D01*
G01X2860201Y-5478358D01*
G01X2875092Y-5493249D01*
G01X2892343Y-5505328D01*
G01X2911429Y-5514228D01*
G01X2931771Y-5519679D01*
G01X2952750Y-5521514D01*
G01X2973729Y-5519679D01*
G01X2994071Y-5514228D01*
G01X3013157Y-5505328D01*
G01X3030408Y-5493249D01*
G01X3045299Y-5478358D01*
G01X3057378Y-5461107D01*
G01X3066278Y-5442021D01*
G01X3071728Y-5421680D01*
G01X3073564Y-5400700D01*
G01X5366856Y-5400700D01*
G01X5368692Y-5421680D01*
G01X5374142Y-5442021D01*
G01X5383042Y-5461107D01*
G01X5395121Y-5478358D01*
G01X5410012Y-5493249D01*
G01X5427263Y-5505328D01*
G01X5446349Y-5514228D01*
G01X5466691Y-5519679D01*
G01X5487670Y-5521514D01*
G01X5508649Y-5519679D01*
G01X5528991Y-5514228D01*
G01X5548077Y-5505328D01*
G01X5565328Y-5493249D01*
G01X5580219Y-5478358D01*
G01X5592298Y-5461107D01*
G01X5601198Y-5442021D01*
G01X5606648Y-5421680D01*
G01X5608484Y-5400700D01*
G01X5606648Y-5379721D01*
G01X5601198Y-5359380D01*
G01X5592298Y-5340293D01*
G01X5580219Y-5323043D01*
G01X5565328Y-5308152D01*
G01X5548077Y-5296073D01*
G01X5528991Y-5287173D01*
G01X5508649Y-5281722D01*
G01X5487670Y-5279887D01*
G01X5487670Y-5279887D01*
G01X5466691Y-5281722D01*
G01X5446349Y-5287173D01*
G01X5427263Y-5296073D01*
G01X5410012Y-5308152D01*
G01X5395121Y-5323043D01*
G01X5383042Y-5340293D01*
G01X5374142Y-5359380D01*
G01X5368692Y-5379721D01*
G01X5366856Y-5400700D01*
G01X3073564Y-5400700D01*
G01X3071728Y-5379721D01*
G01X3066278Y-5359380D01*
G01X3057378Y-5340293D01*
G01X3045299Y-5323043D01*
G01X3030408Y-5308152D01*
G01X3013157Y-5296073D01*
G01X2994071Y-5287173D01*
G01X2973729Y-5281722D01*
G01X2952750Y-5279887D01*
G01X2952750Y-5279887D01*
G01X2931771Y-5281722D01*
G01X2911429Y-5287173D01*
G01X2892343Y-5296073D01*
G01X2875092Y-5308152D01*
G01X2860201Y-5323043D01*
G01X2848122Y-5340293D01*
G01X2839222Y-5359380D01*
G01X2833772Y-5379721D01*
G01X2831936Y-5400700D01*
G01X2338706Y-5400700D01*
G01X2353149Y-5386258D01*
G01X2365228Y-5369007D01*
G01X2374128Y-5349921D01*
G01X2379578Y-5329579D01*
G01X2381414Y-5308600D01*
G01X2379578Y-5287621D01*
G01X2374128Y-5267279D01*
G01X2365228Y-5248193D01*
G01X2353149Y-5230942D01*
G01X2338258Y-5216051D01*
G01X2321007Y-5203972D01*
G01X2301921Y-5195072D01*
G01X2281579Y-5189622D01*
G01X2260600Y-5187786D01*
G01X2239621Y-5189622D01*
G01X2219279Y-5195072D01*
G01X2200193Y-5203972D01*
G01X2182942Y-5216051D01*
G01X2168051Y-5230942D01*
G01X2155972Y-5248193D01*
G01X2147072Y-5267279D01*
G01X2141622Y-5287621D01*
G01X2139786Y-5308600D01*
G01X2139786Y-5308600D01*
G01X2127414Y-5308600D01*
G01X2125578Y-5287621D01*
G01X2120128Y-5267279D01*
G01X2111228Y-5248193D01*
G01X2099149Y-5230942D01*
G01X2084258Y-5216051D01*
G01X2067007Y-5203972D01*
G01X2047921Y-5195072D01*
G01X2027579Y-5189622D01*
G01X2006600Y-5187786D01*
G01X1985621Y-5189622D01*
G01X1965279Y-5195072D01*
G01X1946193Y-5203972D01*
G01X1928942Y-5216051D01*
G01X1914051Y-5230942D01*
G01X1901972Y-5248193D01*
G01X1893072Y-5267279D01*
G01X1887622Y-5287621D01*
G01X1885786Y-5308600D01*
G01X1885786Y-5308600D01*
G01X1873414Y-5308600D01*
G01X1871578Y-5287621D01*
G01X1866128Y-5267279D01*
G01X1857228Y-5248193D01*
G01X1845149Y-5230942D01*
G01X1830258Y-5216051D01*
G01X1813007Y-5203972D01*
G01X1793921Y-5195072D01*
G01X1773579Y-5189622D01*
G01X1752600Y-5187786D01*
G01X1731621Y-5189622D01*
G01X1711279Y-5195072D01*
G01X1692193Y-5203972D01*
G01X1674942Y-5216051D01*
G01X1660051Y-5230942D01*
G01X1647972Y-5248193D01*
G01X1639072Y-5267279D01*
G01X1633622Y-5287621D01*
G01X1631786Y-5308600D01*
G01X1631786Y-5308600D01*
G01X1619013Y-5308600D01*
G01X1618379Y-5292821D01*
G01X1613556Y-5271436D01*
G01X1604948Y-5251276D01*
G01X1592839Y-5233003D01*
G01X1577627Y-5217218D01*
G01X1559814Y-5204442D01*
G01X1559814Y-5146700D01*
G01X2831936Y-5146700D01*
G01X2833772Y-5167680D01*
G01X2839222Y-5188021D01*
G01X2848122Y-5207107D01*
G01X2860201Y-5224358D01*
G01X2875092Y-5239249D01*
G01X2892343Y-5251328D01*
G01X2911429Y-5260228D01*
G01X2931771Y-5265679D01*
G01X2952750Y-5267514D01*
G01X2973729Y-5265679D01*
G01X2994071Y-5260228D01*
G01X3013157Y-5251328D01*
G01X3030408Y-5239249D01*
G01X3045299Y-5224358D01*
G01X3057378Y-5207107D01*
G01X3066278Y-5188021D01*
G01X3071728Y-5167680D01*
G01X3073564Y-5146700D01*
G01X5366856Y-5146700D01*
G01X5368692Y-5167680D01*
G01X5374142Y-5188021D01*
G01X5383042Y-5207107D01*
G01X5395121Y-5224358D01*
G01X5410012Y-5239249D01*
G01X5427263Y-5251328D01*
G01X5446349Y-5260228D01*
G01X5466691Y-5265679D01*
G01X5487670Y-5267514D01*
G01X5508649Y-5265679D01*
G01X5528991Y-5260228D01*
G01X5548077Y-5251328D01*
G01X5565328Y-5239249D01*
G01X5580219Y-5224358D01*
G01X5592298Y-5207107D01*
G01X5601198Y-5188021D01*
G01X5606648Y-5167680D01*
G01X5608484Y-5146700D01*
G01X5606648Y-5125721D01*
G01X5601198Y-5105380D01*
G01X5592298Y-5086293D01*
G01X5580219Y-5069043D01*
G01X5565328Y-5054152D01*
G01X5548077Y-5042073D01*
G01X5528991Y-5033173D01*
G01X5508649Y-5027722D01*
G01X5487670Y-5025887D01*
G01X5487670Y-5025887D01*
G01X5466691Y-5027722D01*
G01X5446349Y-5033173D01*
G01X5427263Y-5042073D01*
G01X5410012Y-5054152D01*
G01X5395121Y-5069043D01*
G01X5383042Y-5086293D01*
G01X5374142Y-5105380D01*
G01X5368692Y-5125721D01*
G01X5366856Y-5146700D01*
G01X3073564Y-5146700D01*
G01X3071728Y-5125721D01*
G01X3066278Y-5105380D01*
G01X3057378Y-5086293D01*
G01X3045299Y-5069043D01*
G01X3030408Y-5054152D01*
G01X3013157Y-5042073D01*
G01X2994071Y-5033173D01*
G01X2973729Y-5027722D01*
G01X2952750Y-5025887D01*
G01X2952750Y-5025887D01*
G01X2931771Y-5027722D01*
G01X2911429Y-5033173D01*
G01X2892343Y-5042073D01*
G01X2875092Y-5054152D01*
G01X2860201Y-5069043D01*
G01X2848122Y-5086293D01*
G01X2839222Y-5105380D01*
G01X2833772Y-5125721D01*
G01X2831936Y-5146700D01*
G01X1559814Y-5146700D01*
G01X1559814Y-4892700D01*
G01X2831936Y-4892700D01*
G01X2833772Y-4913680D01*
G01X2839222Y-4934021D01*
G01X2848122Y-4953107D01*
G01X2860201Y-4970358D01*
G01X2875092Y-4985249D01*
G01X2892343Y-4997328D01*
G01X2911429Y-5006228D01*
G01X2931771Y-5011679D01*
G01X2952750Y-5013514D01*
G01X2973729Y-5011679D01*
G01X2994071Y-5006228D01*
G01X3013157Y-4997328D01*
G01X3030408Y-4985249D01*
G01X3045299Y-4970358D01*
G01X3057378Y-4953107D01*
G01X3066278Y-4934021D01*
G01X3071728Y-4913680D01*
G01X3073564Y-4892700D01*
G01X5366856Y-4892700D01*
G01X5368692Y-4913680D01*
G01X5374142Y-4934021D01*
G01X5383042Y-4953107D01*
G01X5395121Y-4970358D01*
G01X5410012Y-4985249D01*
G01X5427263Y-4997328D01*
G01X5446349Y-5006228D01*
G01X5466691Y-5011679D01*
G01X5487670Y-5013514D01*
G01X5508649Y-5011679D01*
G01X5528991Y-5006228D01*
G01X5548077Y-4997328D01*
G01X5565328Y-4985249D01*
G01X5580219Y-4970358D01*
G01X5592298Y-4953107D01*
G01X5601198Y-4934021D01*
G01X5606648Y-4913680D01*
G01X5608484Y-4892700D01*
G01X5606648Y-4871721D01*
G01X5601198Y-4851380D01*
G01X5592298Y-4832293D01*
G01X5580219Y-4815043D01*
G01X5565328Y-4800152D01*
G01X5548077Y-4788073D01*
G01X5528991Y-4779173D01*
G01X5508649Y-4773722D01*
G01X5487670Y-4771887D01*
G01X5487670Y-4771887D01*
G01X5466691Y-4773722D01*
G01X5446349Y-4779173D01*
G01X5427263Y-4788073D01*
G01X5410012Y-4800152D01*
G01X5395121Y-4815043D01*
G01X5383042Y-4832293D01*
G01X5374142Y-4851380D01*
G01X5368692Y-4871721D01*
G01X5366856Y-4892700D01*
G01X3073564Y-4892700D01*
G01X3071728Y-4871721D01*
G01X3066278Y-4851380D01*
G01X3057378Y-4832293D01*
G01X3045299Y-4815043D01*
G01X3030408Y-4800152D01*
G01X3013157Y-4788073D01*
G01X2994071Y-4779173D01*
G01X2973729Y-4773722D01*
G01X2952750Y-4771887D01*
G01X2952750Y-4771887D01*
G01X2931771Y-4773722D01*
G01X2911429Y-4779173D01*
G01X2892343Y-4788073D01*
G01X2875092Y-4800152D01*
G01X2860201Y-4815043D01*
G01X2848122Y-4832293D01*
G01X2839222Y-4851380D01*
G01X2833772Y-4871721D01*
G01X2831936Y-4892700D01*
G01X1559814Y-4892700D01*
G01X1559814Y-4811014D01*
G01X2841650Y-4811014D01*
G01X2854207Y-4809361D01*
G01X2865907Y-4804514D01*
G01X2875955Y-4796805D01*
G01X2918270Y-4754489D01*
G01X2939772Y-4758815D01*
G01X2961702Y-4759182D01*
G01X2983337Y-4755578D01*
G01X3003964Y-4748122D01*
G01X3022903Y-4737060D01*
G01X3039530Y-4722755D01*
G01X3053296Y-4705681D01*
G01X3063749Y-4686399D01*
G01X3070544Y-4665545D01*
G01X3073456Y-4643806D01*
G01X3073207Y-4638700D01*
G01X5366856Y-4638700D01*
G01X5368692Y-4659680D01*
G01X5374142Y-4680021D01*
G01X5383042Y-4699107D01*
G01X5395121Y-4716358D01*
G01X5410012Y-4731249D01*
G01X5427263Y-4743328D01*
G01X5446349Y-4752228D01*
G01X5466691Y-4757679D01*
G01X5487670Y-4759514D01*
G01X5508649Y-4757679D01*
G01X5528991Y-4752228D01*
G01X5548077Y-4743328D01*
G01X5565328Y-4731249D01*
G01X5580219Y-4716358D01*
G01X5592298Y-4699107D01*
G01X5601198Y-4680021D01*
G01X5606648Y-4659680D01*
G01X5608484Y-4638700D01*
G01X5606648Y-4617721D01*
G01X5601198Y-4597380D01*
G01X5592298Y-4578293D01*
G01X5580219Y-4561043D01*
G01X5565328Y-4546152D01*
G01X5548077Y-4534073D01*
G01X5528991Y-4525173D01*
G01X5508649Y-4519722D01*
G01X5487670Y-4517887D01*
G01X5487670Y-4517887D01*
G01X5466691Y-4519722D01*
G01X5446349Y-4525173D01*
G01X5427263Y-4534073D01*
G01X5410012Y-4546152D01*
G01X5395121Y-4561043D01*
G01X5383042Y-4578293D01*
G01X5374142Y-4597380D01*
G01X5368692Y-4617721D01*
G01X5366856Y-4638700D01*
G01X3073207Y-4638700D01*
G01X3072390Y-4621899D01*
G01X3067381Y-4600545D01*
G01X3058593Y-4580449D01*
G01X3046318Y-4562273D01*
G01X3030958Y-4546616D01*
G01X3013021Y-4533994D01*
G01X2993097Y-4524823D01*
G01X2971844Y-4519405D01*
G01X2949961Y-4517919D01*
G01X2928171Y-4520413D01*
G01X2907190Y-4526806D01*
G01X2887711Y-4536887D01*
G01X2870375Y-4550324D01*
G01X2855755Y-4566673D01*
G01X2844331Y-4585396D01*
G01X2836481Y-4605876D01*
G01X2832462Y-4627438D01*
G01X2832408Y-4649371D01*
G01X2836321Y-4670953D01*
G01X2844070Y-4691471D01*
G01X2821555Y-4713986D01*
G01X1569495Y-4713986D01*
G01X1559814Y-4704305D01*
G01X1559814Y-4695345D01*
G01X1578061Y-4685392D01*
G01X1594332Y-4672459D01*
G01X1608145Y-4656929D01*
G01X1619092Y-4639260D01*
G01X1626849Y-4619977D01*
G01X1631185Y-4599650D01*
G01X1631753Y-4584700D01*
G01X1644486Y-4584700D01*
G01X1646322Y-4605679D01*
G01X1651772Y-4626021D01*
G01X1660672Y-4645107D01*
G01X1672751Y-4662358D01*
G01X1687642Y-4677249D01*
G01X1704893Y-4689328D01*
G01X1723979Y-4698228D01*
G01X1744321Y-4703678D01*
G01X1765300Y-4705514D01*
G01X1786279Y-4703678D01*
G01X1806621Y-4698228D01*
G01X1825707Y-4689328D01*
G01X1842958Y-4677249D01*
G01X1857849Y-4662358D01*
G01X1869928Y-4645107D01*
G01X1878828Y-4626021D01*
G01X1884278Y-4605679D01*
G01X1886114Y-4584700D01*
G01X1898486Y-4584700D01*
G01X1900322Y-4605679D01*
G01X1905772Y-4626021D01*
G01X1914672Y-4645107D01*
G01X1926751Y-4662358D01*
G01X1941642Y-4677249D01*
G01X1958893Y-4689328D01*
G01X1977979Y-4698228D01*
G01X1998321Y-4703678D01*
G01X2019300Y-4705514D01*
G01X2040279Y-4703678D01*
G01X2060621Y-4698228D01*
G01X2079707Y-4689328D01*
G01X2096958Y-4677249D01*
G01X2111849Y-4662358D01*
G01X2123928Y-4645107D01*
G01X2132828Y-4626021D01*
G01X2138278Y-4605679D01*
G01X2140114Y-4584700D01*
G01X2152486Y-4584700D01*
G01X2154322Y-4605679D01*
G01X2159772Y-4626021D01*
G01X2168672Y-4645107D01*
G01X2180751Y-4662358D01*
G01X2195642Y-4677249D01*
G01X2212893Y-4689328D01*
G01X2231979Y-4698228D01*
G01X2252321Y-4703678D01*
G01X2273300Y-4705514D01*
G01X2294279Y-4703678D01*
G01X2314621Y-4698228D01*
G01X2333707Y-4689328D01*
G01X2350958Y-4677249D01*
G01X2365849Y-4662358D01*
G01X2377928Y-4645107D01*
G01X2386828Y-4626021D01*
G01X2392278Y-4605679D01*
G01X2394114Y-4584700D01*
G01X2392278Y-4563721D01*
G01X2386828Y-4543379D01*
G01X2377928Y-4524293D01*
G01X2365849Y-4507042D01*
G01X2350958Y-4492151D01*
G01X2333707Y-4480072D01*
G01X2314621Y-4471172D01*
G01X2294279Y-4465722D01*
G01X2273300Y-4463886D01*
G01X2252321Y-4465722D01*
G01X2231979Y-4471172D01*
G01X2212893Y-4480072D01*
G01X2195642Y-4492151D01*
G01X2180751Y-4507042D01*
G01X2168672Y-4524293D01*
G01X2159772Y-4543379D01*
G01X2154322Y-4563721D01*
G01X2152486Y-4584700D01*
G01X2152486Y-4584700D01*
G01X2140114Y-4584700D01*
G01X2138278Y-4563721D01*
G01X2132828Y-4543379D01*
G01X2123928Y-4524293D01*
G01X2111849Y-4507042D01*
G01X2096958Y-4492151D01*
G01X2079707Y-4480072D01*
G01X2060621Y-4471172D01*
G01X2040279Y-4465722D01*
G01X2019300Y-4463886D01*
G01X1998321Y-4465722D01*
G01X1977979Y-4471172D01*
G01X1958893Y-4480072D01*
G01X1941642Y-4492151D01*
G01X1926751Y-4507042D01*
G01X1914672Y-4524293D01*
G01X1905772Y-4543379D01*
G01X1900322Y-4563721D01*
G01X1898486Y-4584700D01*
G01X1898486Y-4584700D01*
G01X1886114Y-4584700D01*
G01X1884278Y-4563721D01*
G01X1878828Y-4543379D01*
G01X1869928Y-4524293D01*
G01X1857849Y-4507042D01*
G01X1842958Y-4492151D01*
G01X1825707Y-4480072D01*
G01X1806621Y-4471172D01*
G01X1786279Y-4465722D01*
G01X1765300Y-4463886D01*
G01X1744321Y-4465722D01*
G01X1723979Y-4471172D01*
G01X1704893Y-4480072D01*
G01X1687642Y-4492151D01*
G01X1672751Y-4507042D01*
G01X1660672Y-4524293D01*
G01X1651772Y-4543379D01*
G01X1646322Y-4563721D01*
G01X1644486Y-4584700D01*
G01X1644486Y-4584700D01*
G01X1631753Y-4584700D01*
G01X1631974Y-4578880D01*
G01X1629190Y-4558282D01*
G01X1622917Y-4538467D01*
G01X1613341Y-4520019D01*
G01X1600745Y-4503486D01*
G01X1585501Y-4489357D01*
G01X1568061Y-4478050D01*
G01X1548941Y-4469899D01*
G01X1528706Y-4465147D01*
G01X1507957Y-4463932D01*
G01X1487307Y-4466293D01*
G01X1467367Y-4472157D01*
G01X1379910Y-4384700D01*
G01X2831936Y-4384700D01*
G01X2833772Y-4405680D01*
G01X2839222Y-4426021D01*
G01X2848122Y-4445107D01*
G01X2860201Y-4462358D01*
G01X2875092Y-4477249D01*
G01X2892343Y-4489328D01*
G01X2911429Y-4498228D01*
G01X2931771Y-4503679D01*
G01X2952750Y-4505514D01*
G01X2973729Y-4503679D01*
G01X2994071Y-4498228D01*
G01X3013157Y-4489328D01*
G01X3030408Y-4477249D01*
G01X3045299Y-4462358D01*
G01X3057378Y-4445107D01*
G01X3066278Y-4426021D01*
G01X3071728Y-4405680D01*
G01X3073564Y-4384700D01*
G01X5366856Y-4384700D01*
G01X5368692Y-4405680D01*
G01X5374142Y-4426021D01*
G01X5383042Y-4445107D01*
G01X5395121Y-4462358D01*
G01X5410012Y-4477249D01*
G01X5427263Y-4489328D01*
G01X5446349Y-4498228D01*
G01X5466691Y-4503679D01*
G01X5487670Y-4505514D01*
G01X5508649Y-4503679D01*
G01X5528991Y-4498228D01*
G01X5548077Y-4489328D01*
G01X5565328Y-4477249D01*
G01X5580219Y-4462358D01*
G01X5592298Y-4445107D01*
G01X5601198Y-4426021D01*
G01X5606648Y-4405680D01*
G01X5608484Y-4384700D01*
G01X5606648Y-4363721D01*
G01X5601198Y-4343380D01*
G01X5592298Y-4324293D01*
G01X5580219Y-4307043D01*
G01X5565328Y-4292152D01*
G01X5548077Y-4280073D01*
G01X5528991Y-4271173D01*
G01X5508649Y-4265722D01*
G01X5487670Y-4263887D01*
G01X5487670Y-4263887D01*
G01X5466691Y-4265722D01*
G01X5446349Y-4271173D01*
G01X5427263Y-4280073D01*
G01X5410012Y-4292152D01*
G01X5395121Y-4307043D01*
G01X5383042Y-4324293D01*
G01X5374142Y-4343380D01*
G01X5368692Y-4363721D01*
G01X5366856Y-4384700D01*
G01X3073564Y-4384700D01*
G01X3071728Y-4363721D01*
G01X3066278Y-4343380D01*
G01X3057378Y-4324293D01*
G01X3045299Y-4307043D01*
G01X3030408Y-4292152D01*
G01X3013157Y-4280073D01*
G01X2994071Y-4271173D01*
G01X2973729Y-4265722D01*
G01X2952750Y-4263887D01*
G01X2952750Y-4263887D01*
G01X2931771Y-4265722D01*
G01X2911429Y-4271173D01*
G01X2892343Y-4280073D01*
G01X2875092Y-4292152D01*
G01X2860201Y-4307043D01*
G01X2848122Y-4324293D01*
G01X2839222Y-4343380D01*
G01X2833772Y-4363721D01*
G01X2831936Y-4384700D01*
G01X1379910Y-4384700D01*
G01X1305814Y-4310605D01*
G01X1305814Y-4130700D01*
G01X2831936Y-4130700D01*
G01X2833772Y-4151680D01*
G01X2839222Y-4172021D01*
G01X2848122Y-4191107D01*
G01X2860201Y-4208358D01*
G01X2875092Y-4223249D01*
G01X2892343Y-4235328D01*
G01X2911429Y-4244228D01*
G01X2931771Y-4249679D01*
G01X2952750Y-4251514D01*
G01X2973729Y-4249679D01*
G01X2994071Y-4244228D01*
G01X3013157Y-4235328D01*
G01X3030408Y-4223249D01*
G01X3045299Y-4208358D01*
G01X3057378Y-4191107D01*
G01X3066278Y-4172021D01*
G01X3071728Y-4151680D01*
G01X3073564Y-4130700D01*
G01X5366856Y-4130700D01*
G01X5368692Y-4151680D01*
G01X5374142Y-4172021D01*
G01X5383042Y-4191107D01*
G01X5395121Y-4208358D01*
G01X5410012Y-4223249D01*
G01X5427263Y-4235328D01*
G01X5446349Y-4244228D01*
G01X5466691Y-4249679D01*
G01X5487670Y-4251514D01*
G01X5508649Y-4249679D01*
G01X5528991Y-4244228D01*
G01X5548077Y-4235328D01*
G01X5565328Y-4223249D01*
G01X5580219Y-4208358D01*
G01X5592298Y-4191107D01*
G01X5601198Y-4172021D01*
G01X5606648Y-4151680D01*
G01X5608484Y-4130700D01*
G01X5606648Y-4109721D01*
G01X5601198Y-4089380D01*
G01X5592298Y-4070293D01*
G01X5580219Y-4053043D01*
G01X5565328Y-4038152D01*
G01X5548077Y-4026073D01*
G01X5528991Y-4017173D01*
G01X5508649Y-4011722D01*
G01X5487670Y-4009887D01*
G01X5487670Y-4009887D01*
G01X5466691Y-4011722D01*
G01X5446349Y-4017173D01*
G01X5427263Y-4026073D01*
G01X5410012Y-4038152D01*
G01X5395121Y-4053043D01*
G01X5383042Y-4070293D01*
G01X5374142Y-4089380D01*
G01X5368692Y-4109721D01*
G01X5366856Y-4130700D01*
G01X3073564Y-4130700D01*
G01X3071728Y-4109721D01*
G01X3066278Y-4089380D01*
G01X3057378Y-4070293D01*
G01X3045299Y-4053043D01*
G01X3030408Y-4038152D01*
G01X3013157Y-4026073D01*
G01X2994071Y-4017173D01*
G01X2973729Y-4011722D01*
G01X2952750Y-4009887D01*
G01X2952750Y-4009887D01*
G01X2931771Y-4011722D01*
G01X2911429Y-4017173D01*
G01X2892343Y-4026073D01*
G01X2875092Y-4038152D01*
G01X2860201Y-4053043D01*
G01X2848122Y-4070293D01*
G01X2839222Y-4089380D01*
G01X2833772Y-4109721D01*
G01X2831936Y-4130700D01*
G01X1305814Y-4130700D01*
G01X1305814Y-4019714D01*
G01X1355000Y-4019714D01*
G01X1366067Y-4017961D01*
G01X1376051Y-4012874D01*
G01X1383974Y-4004951D01*
G01X1389061Y-3994967D01*
G01X1390814Y-3983900D01*
G01X1390814Y-3898900D01*
G01X1403186Y-3898900D01*
G01X1405022Y-3919879D01*
G01X1410472Y-3940221D01*
G01X1419372Y-3959307D01*
G01X1431451Y-3976558D01*
G01X1446342Y-3991449D01*
G01X1463593Y-4003528D01*
G01X1482679Y-4012428D01*
G01X1503021Y-4017878D01*
G01X1524000Y-4019714D01*
G01X1544979Y-4017878D01*
G01X1565321Y-4012428D01*
G01X1584407Y-4003528D01*
G01X1601658Y-3991449D01*
G01X1616549Y-3976558D01*
G01X1628628Y-3959307D01*
G01X1637528Y-3940221D01*
G01X1642978Y-3919879D01*
G01X1644814Y-3898900D01*
G01X1657186Y-3898900D01*
G01X1659022Y-3919879D01*
G01X1664472Y-3940221D01*
G01X1673372Y-3959307D01*
G01X1685451Y-3976558D01*
G01X1700342Y-3991449D01*
G01X1717593Y-4003528D01*
G01X1736679Y-4012428D01*
G01X1757021Y-4017878D01*
G01X1778000Y-4019714D01*
G01X1798979Y-4017878D01*
G01X1819321Y-4012428D01*
G01X1838407Y-4003528D01*
G01X1855658Y-3991449D01*
G01X1870549Y-3976558D01*
G01X1882628Y-3959307D01*
G01X1891528Y-3940221D01*
G01X1896978Y-3919879D01*
G01X1898814Y-3898900D01*
G01X1911186Y-3898900D01*
G01X1913022Y-3919879D01*
G01X1918472Y-3940221D01*
G01X1927372Y-3959307D01*
G01X1939451Y-3976558D01*
G01X1954342Y-3991449D01*
G01X1971593Y-4003528D01*
G01X1990679Y-4012428D01*
G01X2011021Y-4017878D01*
G01X2032000Y-4019714D01*
G01X2052979Y-4017878D01*
G01X2073321Y-4012428D01*
G01X2092407Y-4003528D01*
G01X2109658Y-3991449D01*
G01X2124549Y-3976558D01*
G01X2136628Y-3959307D01*
G01X2145528Y-3940221D01*
G01X2150978Y-3919879D01*
G01X2152814Y-3898900D01*
G01X2150978Y-3877921D01*
G01X2150651Y-3876700D01*
G01X2831936Y-3876700D01*
G01X2833772Y-3897680D01*
G01X2839222Y-3918021D01*
G01X2848122Y-3937107D01*
G01X2860201Y-3954358D01*
G01X2875092Y-3969249D01*
G01X2892343Y-3981328D01*
G01X2911429Y-3990228D01*
G01X2931771Y-3995679D01*
G01X2952750Y-3997514D01*
G01X2973729Y-3995679D01*
G01X2994071Y-3990228D01*
G01X3013157Y-3981328D01*
G01X3030408Y-3969249D01*
G01X3045299Y-3954358D01*
G01X3057378Y-3937107D01*
G01X3066278Y-3918021D01*
G01X3071728Y-3897680D01*
G01X3073564Y-3876700D01*
G01X5366856Y-3876700D01*
G01X5368692Y-3897680D01*
G01X5374142Y-3918021D01*
G01X5383042Y-3937107D01*
G01X5395121Y-3954358D01*
G01X5410012Y-3969249D01*
G01X5427263Y-3981328D01*
G01X5446349Y-3990228D01*
G01X5466691Y-3995679D01*
G01X5487670Y-3997514D01*
G01X5508649Y-3995679D01*
G01X5528991Y-3990228D01*
G01X5548077Y-3981328D01*
G01X5565328Y-3969249D01*
G01X5580219Y-3954358D01*
G01X5592298Y-3937107D01*
G01X5601198Y-3918021D01*
G01X5606648Y-3897680D01*
G01X5608484Y-3876700D01*
G01X5606648Y-3855721D01*
G01X5601198Y-3835380D01*
G01X5592298Y-3816293D01*
G01X5580219Y-3799043D01*
G01X5565328Y-3784152D01*
G01X5548077Y-3772073D01*
G01X5528991Y-3763173D01*
G01X5508649Y-3757722D01*
G01X5487670Y-3755887D01*
G01X5487670Y-3755887D01*
G01X5466691Y-3757722D01*
G01X5446349Y-3763173D01*
G01X5427263Y-3772073D01*
G01X5410012Y-3784152D01*
G01X5395121Y-3799043D01*
G01X5383042Y-3816293D01*
G01X5374142Y-3835380D01*
G01X5368692Y-3855721D01*
G01X5366856Y-3876700D01*
G01X3073564Y-3876700D01*
G01X3071728Y-3855721D01*
G01X3066278Y-3835380D01*
G01X3057378Y-3816293D01*
G01X3045299Y-3799043D01*
G01X3030408Y-3784152D01*
G01X3013157Y-3772073D01*
G01X2994071Y-3763173D01*
G01X2973729Y-3757722D01*
G01X2952750Y-3755887D01*
G01X2952750Y-3755887D01*
G01X2931771Y-3757722D01*
G01X2911429Y-3763173D01*
G01X2892343Y-3772073D01*
G01X2875092Y-3784152D01*
G01X2860201Y-3799043D01*
G01X2848122Y-3816293D01*
G01X2839222Y-3835380D01*
G01X2833772Y-3855721D01*
G01X2831936Y-3876700D01*
G01X2150651Y-3876700D01*
G01X2145528Y-3857579D01*
G01X2136628Y-3838493D01*
G01X2124549Y-3821242D01*
G01X2109658Y-3806351D01*
G01X2092407Y-3794272D01*
G01X2073321Y-3785372D01*
G01X2052979Y-3779922D01*
G01X2032000Y-3778086D01*
G01X2011021Y-3779922D01*
G01X1990679Y-3785372D01*
G01X1971593Y-3794272D01*
G01X1954342Y-3806351D01*
G01X1939451Y-3821242D01*
G01X1927372Y-3838493D01*
G01X1918472Y-3857579D01*
G01X1913022Y-3877921D01*
G01X1911186Y-3898900D01*
G01X1911186Y-3898900D01*
G01X1898814Y-3898900D01*
G01X1896978Y-3877921D01*
G01X1891528Y-3857579D01*
G01X1882628Y-3838493D01*
G01X1870549Y-3821242D01*
G01X1855658Y-3806351D01*
G01X1838407Y-3794272D01*
G01X1819321Y-3785372D01*
G01X1798979Y-3779922D01*
G01X1778000Y-3778086D01*
G01X1757021Y-3779922D01*
G01X1736679Y-3785372D01*
G01X1717593Y-3794272D01*
G01X1700342Y-3806351D01*
G01X1685451Y-3821242D01*
G01X1673372Y-3838493D01*
G01X1664472Y-3857579D01*
G01X1659022Y-3877921D01*
G01X1657186Y-3898900D01*
G01X1657186Y-3898900D01*
G01X1644814Y-3898900D01*
G01X1642978Y-3877921D01*
G01X1637528Y-3857579D01*
G01X1628628Y-3838493D01*
G01X1616549Y-3821242D01*
G01X1601658Y-3806351D01*
G01X1584407Y-3794272D01*
G01X1565321Y-3785372D01*
G01X1544979Y-3779922D01*
G01X1524000Y-3778086D01*
G01X1503021Y-3779922D01*
G01X1482679Y-3785372D01*
G01X1463593Y-3794272D01*
G01X1446342Y-3806351D01*
G01X1431451Y-3821242D01*
G01X1419372Y-3838493D01*
G01X1410472Y-3857579D01*
G01X1405022Y-3877921D01*
G01X1403186Y-3898900D01*
G01X1403186Y-3898900D01*
G01X1390814Y-3898900D01*
G01X1390814Y-3813900D01*
G01X1389061Y-3802833D01*
G01X1383974Y-3792849D01*
G01X1376051Y-3784926D01*
G01X1366067Y-3779839D01*
G01X1355000Y-3778086D01*
G01X1305814Y-3778086D01*
G01X1305814Y-3622700D01*
G01X2831936Y-3622700D01*
G01X2833772Y-3643680D01*
G01X2839222Y-3664021D01*
G01X2848122Y-3683107D01*
G01X2860201Y-3700358D01*
G01X2875092Y-3715249D01*
G01X2892343Y-3727328D01*
G01X2911429Y-3736228D01*
G01X2931771Y-3741679D01*
G01X2952750Y-3743514D01*
G01X2973729Y-3741679D01*
G01X2994071Y-3736228D01*
G01X3013157Y-3727328D01*
G01X3030408Y-3715249D01*
G01X3045299Y-3700358D01*
G01X3057378Y-3683107D01*
G01X3066278Y-3664021D01*
G01X3071728Y-3643680D01*
G01X3073564Y-3622700D01*
G01X5366856Y-3622700D01*
G01X5368692Y-3643680D01*
G01X5374142Y-3664021D01*
G01X5383042Y-3683107D01*
G01X5395121Y-3700358D01*
G01X5410012Y-3715249D01*
G01X5427263Y-3727328D01*
G01X5446349Y-3736228D01*
G01X5466691Y-3741679D01*
G01X5487670Y-3743514D01*
G01X5508649Y-3741679D01*
G01X5528991Y-3736228D01*
G01X5548077Y-3727328D01*
G01X5565328Y-3715249D01*
G01X5580219Y-3700358D01*
G01X5592298Y-3683107D01*
G01X5601198Y-3664021D01*
G01X5606648Y-3643680D01*
G01X5608484Y-3622700D01*
G01X5606648Y-3601721D01*
G01X5601198Y-3581380D01*
G01X5592298Y-3562293D01*
G01X5580219Y-3545043D01*
G01X5565328Y-3530152D01*
G01X5548077Y-3518073D01*
G01X5528991Y-3509173D01*
G01X5508649Y-3503722D01*
G01X5487670Y-3501887D01*
G01X5487670Y-3501887D01*
G01X5466691Y-3503722D01*
G01X5446349Y-3509173D01*
G01X5427263Y-3518073D01*
G01X5410012Y-3530152D01*
G01X5395121Y-3545043D01*
G01X5383042Y-3562293D01*
G01X5374142Y-3581380D01*
G01X5368692Y-3601721D01*
G01X5366856Y-3622700D01*
G01X3073564Y-3622700D01*
G01X3071728Y-3601721D01*
G01X3066278Y-3581380D01*
G01X3057378Y-3562293D01*
G01X3045299Y-3545043D01*
G01X3030408Y-3530152D01*
G01X3013157Y-3518073D01*
G01X2994071Y-3509173D01*
G01X2973729Y-3503722D01*
G01X2952750Y-3501887D01*
G01X2952750Y-3501887D01*
G01X2931771Y-3503722D01*
G01X2911429Y-3509173D01*
G01X2892343Y-3518073D01*
G01X2875092Y-3530152D01*
G01X2860201Y-3545043D01*
G01X2848122Y-3562293D01*
G01X2839222Y-3581380D01*
G01X2833772Y-3601721D01*
G01X2831936Y-3622700D01*
G01X1305814Y-3622700D01*
G01X1305814Y-3448214D01*
G01X1342300Y-3448214D01*
G01X1353367Y-3446461D01*
G01X1363351Y-3441374D01*
G01X1371274Y-3433451D01*
G01X1376361Y-3423467D01*
G01X1378114Y-3412400D01*
G01X1378114Y-3327400D01*
G01X1390486Y-3327400D01*
G01X1392322Y-3348379D01*
G01X1397772Y-3368721D01*
G01X1406672Y-3387807D01*
G01X1418751Y-3405058D01*
G01X1433642Y-3419949D01*
G01X1450893Y-3432028D01*
G01X1469979Y-3440928D01*
G01X1490321Y-3446378D01*
G01X1511300Y-3448214D01*
G01X1532279Y-3446378D01*
G01X1552621Y-3440928D01*
G01X1571707Y-3432028D01*
G01X1588958Y-3419949D01*
G01X1603849Y-3405058D01*
G01X1615928Y-3387807D01*
G01X1624828Y-3368721D01*
G01X1630278Y-3348379D01*
G01X1632114Y-3327400D01*
G01X1644486Y-3327400D01*
G01X1646322Y-3348379D01*
G01X1651772Y-3368721D01*
G01X1660672Y-3387807D01*
G01X1672751Y-3405058D01*
G01X1687642Y-3419949D01*
G01X1704893Y-3432028D01*
G01X1723979Y-3440928D01*
G01X1744321Y-3446378D01*
G01X1765300Y-3448214D01*
G01X1786279Y-3446378D01*
G01X1806621Y-3440928D01*
G01X1825707Y-3432028D01*
G01X1842958Y-3419949D01*
G01X1857849Y-3405058D01*
G01X1869928Y-3387807D01*
G01X1878828Y-3368721D01*
G01X1884278Y-3348379D01*
G01X1885327Y-3336389D01*
G01X1898821Y-3336389D01*
G01X1902376Y-3357811D01*
G01X1909709Y-3378251D01*
G01X1909709Y-3378251D01*
G01X1920582Y-3397047D01*
G01X1934644Y-3413594D01*
G01X1951441Y-3427356D01*
G01X1970431Y-3437889D01*
G01X1990999Y-3444852D01*
G01X2012482Y-3448021D01*
G01X2034184Y-3447293D01*
G01X2055406Y-3442692D01*
G01X2075462Y-3434367D01*
G01X2093703Y-3422585D01*
G01X2109540Y-3407729D01*
G01X2122462Y-3390277D01*
G01X2132052Y-3370794D01*
G01X2132648Y-3368700D01*
G01X2831936Y-3368700D01*
G01X2833772Y-3389680D01*
G01X2839222Y-3410021D01*
G01X2848122Y-3429107D01*
G01X2860201Y-3446358D01*
G01X2875092Y-3461249D01*
G01X2892343Y-3473328D01*
G01X2911429Y-3482228D01*
G01X2931771Y-3487679D01*
G01X2952750Y-3489514D01*
G01X2973729Y-3487679D01*
G01X2994071Y-3482228D01*
G01X3013157Y-3473328D01*
G01X3030408Y-3461249D01*
G01X3045299Y-3446358D01*
G01X3057378Y-3429107D01*
G01X3066278Y-3410021D01*
G01X3071728Y-3389680D01*
G01X3073564Y-3368700D01*
G01X5366856Y-3368700D01*
G01X5368692Y-3389680D01*
G01X5374142Y-3410021D01*
G01X5383042Y-3429107D01*
G01X5395121Y-3446358D01*
G01X5410012Y-3461249D01*
G01X5427263Y-3473328D01*
G01X5446349Y-3482228D01*
G01X5466691Y-3487679D01*
G01X5487670Y-3489514D01*
G01X5508649Y-3487679D01*
G01X5528991Y-3482228D01*
G01X5548077Y-3473328D01*
G01X5565328Y-3461249D01*
G01X5580219Y-3446358D01*
G01X5592298Y-3429107D01*
G01X5601198Y-3410021D01*
G01X5606648Y-3389680D01*
G01X5608484Y-3368700D01*
G01X5606648Y-3347721D01*
G01X5601198Y-3327380D01*
G01X5592298Y-3308293D01*
G01X5580219Y-3291043D01*
G01X5565328Y-3276152D01*
G01X5548077Y-3264073D01*
G01X5528991Y-3255173D01*
G01X5508649Y-3249722D01*
G01X5487670Y-3247887D01*
G01X5487670Y-3247887D01*
G01X5466691Y-3249722D01*
G01X5446349Y-3255173D01*
G01X5427263Y-3264073D01*
G01X5410012Y-3276152D01*
G01X5395121Y-3291043D01*
G01X5383042Y-3308293D01*
G01X5374142Y-3327380D01*
G01X5368692Y-3347721D01*
G01X5366856Y-3368700D01*
G01X3073564Y-3368700D01*
G01X3071728Y-3347721D01*
G01X3066278Y-3327380D01*
G01X3057378Y-3308293D01*
G01X3045299Y-3291043D01*
G01X3030408Y-3276152D01*
G01X3013157Y-3264073D01*
G01X2994071Y-3255173D01*
G01X2973729Y-3249722D01*
G01X2952750Y-3247887D01*
G01X2952750Y-3247887D01*
G01X2931771Y-3249722D01*
G01X2911429Y-3255173D01*
G01X2892343Y-3264073D01*
G01X2875092Y-3276152D01*
G01X2860201Y-3291043D01*
G01X2848122Y-3308293D01*
G01X2839222Y-3327380D01*
G01X2833772Y-3347721D01*
G01X2831936Y-3368700D01*
G01X2132648Y-3368700D01*
G01X2137998Y-3349909D01*
G01X2140110Y-3328297D01*
G01X2353707Y-3114700D01*
G01X2831936Y-3114700D01*
G01X2833772Y-3135680D01*
G01X2839222Y-3156021D01*
G01X2848122Y-3175107D01*
G01X2860201Y-3192358D01*
G01X2875092Y-3207249D01*
G01X2892343Y-3219328D01*
G01X2911429Y-3228228D01*
G01X2931771Y-3233679D01*
G01X2952750Y-3235514D01*
G01X2973729Y-3233679D01*
G01X2994071Y-3228228D01*
G01X3013157Y-3219328D01*
G01X3030408Y-3207249D01*
G01X3045299Y-3192358D01*
G01X3057378Y-3175107D01*
G01X3066278Y-3156021D01*
G01X3071728Y-3135680D01*
G01X3073564Y-3114700D01*
G01X5366856Y-3114700D01*
G01X5368692Y-3135680D01*
G01X5374142Y-3156021D01*
G01X5383042Y-3175107D01*
G01X5395121Y-3192358D01*
G01X5410012Y-3207249D01*
G01X5427263Y-3219328D01*
G01X5446349Y-3228228D01*
G01X5466691Y-3233679D01*
G01X5487670Y-3235514D01*
G01X5508649Y-3233679D01*
G01X5528991Y-3228228D01*
G01X5548077Y-3219328D01*
G01X5565328Y-3207249D01*
G01X5580219Y-3192358D01*
G01X5592298Y-3175107D01*
G01X5601198Y-3156021D01*
G01X5606648Y-3135680D01*
G01X5608484Y-3114700D01*
G01X5606648Y-3093721D01*
G01X5601198Y-3073380D01*
G01X5592298Y-3054293D01*
G01X5580219Y-3037043D01*
G01X5565328Y-3022152D01*
G01X5548077Y-3010073D01*
G01X5528991Y-3001173D01*
G01X5508649Y-2995722D01*
G01X5487670Y-2993887D01*
G01X5487670Y-2993887D01*
G01X5466691Y-2995722D01*
G01X5446349Y-3001173D01*
G01X5427263Y-3010073D01*
G01X5410012Y-3022152D01*
G01X5395121Y-3037043D01*
G01X5383042Y-3054293D01*
G01X5374142Y-3073380D01*
G01X5368692Y-3093721D01*
G01X5366856Y-3114700D01*
G01X3073564Y-3114700D01*
G01X3071728Y-3093721D01*
G01X3066278Y-3073380D01*
G01X3057378Y-3054293D01*
G01X3045299Y-3037043D01*
G01X3030408Y-3022152D01*
G01X3013157Y-3010073D01*
G01X2994071Y-3001173D01*
G01X2973729Y-2995722D01*
G01X2952750Y-2993887D01*
G01X2952750Y-2993887D01*
G01X2931771Y-2995722D01*
G01X2911429Y-3001173D01*
G01X2892343Y-3010073D01*
G01X2875092Y-3022152D01*
G01X2860201Y-3037043D01*
G01X2848122Y-3054293D01*
G01X2839222Y-3073380D01*
G01X2833772Y-3093721D01*
G01X2831936Y-3114700D01*
G01X2353707Y-3114700D01*
G01X2467112Y-3001296D01*
G01X2487679Y-3006389D01*
G01X2508838Y-3007518D01*
G01X2529831Y-3004642D01*
G01X2549906Y-2997864D01*
G01X2568346Y-2987427D01*
G01X2584491Y-2973705D01*
G01X2597762Y-2957187D01*
G01X2607686Y-2938466D01*
G01X2613907Y-2918211D01*
G01X2616202Y-2897147D01*
G01X2614489Y-2876027D01*
G01X2610242Y-2860700D01*
G01X2831936Y-2860700D01*
G01X2833772Y-2881680D01*
G01X2839222Y-2902021D01*
G01X2848122Y-2921107D01*
G01X2860201Y-2938358D01*
G01X2875092Y-2953249D01*
G01X2892343Y-2965328D01*
G01X2911429Y-2974228D01*
G01X2931771Y-2979679D01*
G01X2952750Y-2981514D01*
G01X2973729Y-2979679D01*
G01X2994071Y-2974228D01*
G01X3013157Y-2965328D01*
G01X3030408Y-2953249D01*
G01X3045299Y-2938358D01*
G01X3057378Y-2921107D01*
G01X3066278Y-2902021D01*
G01X3071728Y-2881680D01*
G01X3073564Y-2860700D01*
G01X5366856Y-2860700D01*
G01X5368692Y-2881680D01*
G01X5374142Y-2902021D01*
G01X5383042Y-2921107D01*
G01X5395121Y-2938358D01*
G01X5410012Y-2953249D01*
G01X5427263Y-2965328D01*
G01X5446349Y-2974228D01*
G01X5466691Y-2979679D01*
G01X5487670Y-2981514D01*
G01X5508649Y-2979679D01*
G01X5528991Y-2974228D01*
G01X5548077Y-2965328D01*
G01X5565328Y-2953249D01*
G01X5580219Y-2938358D01*
G01X5592298Y-2921107D01*
G01X5601198Y-2902021D01*
G01X5606648Y-2881680D01*
G01X5608484Y-2860700D01*
G01X5606648Y-2839721D01*
G01X5601198Y-2819380D01*
G01X5592298Y-2800293D01*
G01X5580219Y-2783043D01*
G01X5565328Y-2768152D01*
G01X5548077Y-2756073D01*
G01X5528991Y-2747173D01*
G01X5508649Y-2741722D01*
G01X5487670Y-2739887D01*
G01X5487670Y-2739887D01*
G01X5466691Y-2741722D01*
G01X5446349Y-2747173D01*
G01X5427263Y-2756073D01*
G01X5410012Y-2768152D01*
G01X5395121Y-2783043D01*
G01X5383042Y-2800293D01*
G01X5374142Y-2819380D01*
G01X5368692Y-2839721D01*
G01X5366856Y-2860700D01*
G01X3073564Y-2860700D01*
G01X3071728Y-2839721D01*
G01X3066278Y-2819380D01*
G01X3057378Y-2800293D01*
G01X3045299Y-2783043D01*
G01X3030408Y-2768152D01*
G01X3013157Y-2756073D01*
G01X2994071Y-2747173D01*
G01X2973729Y-2741722D01*
G01X2952750Y-2739887D01*
G01X2952750Y-2739887D01*
G01X2931771Y-2741722D01*
G01X2911429Y-2747173D01*
G01X2892343Y-2756073D01*
G01X2875092Y-2768152D01*
G01X2860201Y-2783043D01*
G01X2848122Y-2800293D01*
G01X2839222Y-2819380D01*
G01X2833772Y-2839721D01*
G01X2831936Y-2860700D01*
G01X2610242Y-2860700D01*
G01X2608830Y-2855608D01*
G01X2599427Y-2836620D01*
G01X2586617Y-2819743D01*
G01X2570857Y-2805579D01*
G01X2552713Y-2794637D01*
G01X2552713Y-2606700D01*
G01X2831936Y-2606700D01*
G01X2833772Y-2627680D01*
G01X2839222Y-2648021D01*
G01X2848122Y-2667107D01*
G01X2860201Y-2684358D01*
G01X2875092Y-2699249D01*
G01X2892343Y-2711328D01*
G01X2911429Y-2720228D01*
G01X2931771Y-2725679D01*
G01X2952750Y-2727514D01*
G01X2973729Y-2725679D01*
G01X2994071Y-2720228D01*
G01X3013157Y-2711328D01*
G01X3030408Y-2699249D01*
G01X3045299Y-2684358D01*
G01X3057378Y-2667107D01*
G01X3066278Y-2648021D01*
G01X3071728Y-2627680D01*
G01X3073564Y-2606700D01*
G01X5366856Y-2606700D01*
G01X5368692Y-2627680D01*
G01X5374142Y-2648021D01*
G01X5383042Y-2667107D01*
G01X5395121Y-2684358D01*
G01X5410012Y-2699249D01*
G01X5427263Y-2711328D01*
G01X5446349Y-2720228D01*
G01X5466691Y-2725679D01*
G01X5487670Y-2727514D01*
G01X5508649Y-2725679D01*
G01X5528991Y-2720228D01*
G01X5548077Y-2711328D01*
G01X5565328Y-2699249D01*
G01X5580219Y-2684358D01*
G01X5592298Y-2667107D01*
G01X5601198Y-2648021D01*
G01X5606648Y-2627680D01*
G01X5608484Y-2606700D01*
G01X5606648Y-2585721D01*
G01X5601198Y-2565380D01*
G01X5592298Y-2546293D01*
G01X5580219Y-2529043D01*
G01X5565328Y-2514152D01*
G01X5548077Y-2502073D01*
G01X5528991Y-2493173D01*
G01X5508649Y-2487722D01*
G01X5487670Y-2485887D01*
G01X5487670Y-2485887D01*
G01X5466691Y-2487722D01*
G01X5446349Y-2493173D01*
G01X5427263Y-2502073D01*
G01X5410012Y-2514152D01*
G01X5395121Y-2529043D01*
G01X5383042Y-2546293D01*
G01X5374142Y-2565380D01*
G01X5368692Y-2585721D01*
G01X5366856Y-2606700D01*
G01X3073564Y-2606700D01*
G01X3071728Y-2585721D01*
G01X3066278Y-2565380D01*
G01X3057378Y-2546293D01*
G01X3045299Y-2529043D01*
G01X3030408Y-2514152D01*
G01X3013157Y-2502073D01*
G01X2994071Y-2493173D01*
G01X2973729Y-2487722D01*
G01X2952750Y-2485887D01*
G01X2952750Y-2485887D01*
G01X2931771Y-2487722D01*
G01X2911429Y-2493173D01*
G01X2892343Y-2502073D01*
G01X2875092Y-2514152D01*
G01X2860201Y-2529043D01*
G01X2848122Y-2546293D01*
G01X2839222Y-2565380D01*
G01X2833772Y-2585721D01*
G01X2831936Y-2606700D01*
G01X2552713Y-2606700D01*
G01X2552713Y-2564763D01*
G01X2569808Y-2554589D01*
G01X2584833Y-2541551D01*
G01X2597316Y-2526061D01*
G01X2606861Y-2508606D01*
G01X2615229Y-2504127D01*
G01X2622565Y-2498105D01*
G01X2768629Y-2352040D01*
G01X2833206Y-2352040D01*
G01X2835042Y-2373019D01*
G01X2840492Y-2393361D01*
G01X2849392Y-2412447D01*
G01X2861471Y-2429698D01*
G01X2876362Y-2444589D01*
G01X2893613Y-2456668D01*
G01X2912699Y-2465568D01*
G01X2933041Y-2471018D01*
G01X2954020Y-2472854D01*
G01X2974999Y-2471018D01*
G01X2995341Y-2465568D01*
G01X3014427Y-2456668D01*
G01X3031678Y-2444589D01*
G01X3046569Y-2429698D01*
G01X3058648Y-2412447D01*
G01X3067548Y-2393361D01*
G01X3072998Y-2373019D01*
G01X3074834Y-2352040D01*
G01X5368126Y-2352040D01*
G01X5369962Y-2373019D01*
G01X5375412Y-2393361D01*
G01X5384312Y-2412447D01*
G01X5396391Y-2429698D01*
G01X5411282Y-2444589D01*
G01X5428533Y-2456668D01*
G01X5447619Y-2465568D01*
G01X5467961Y-2471018D01*
G01X5488940Y-2472854D01*
G01X5509919Y-2471018D01*
G01X5530261Y-2465568D01*
G01X5549347Y-2456668D01*
G01X5566598Y-2444589D01*
G01X5581489Y-2429698D01*
G01X5593568Y-2412447D01*
G01X5602468Y-2393361D01*
G01X5607918Y-2373019D01*
G01X5609754Y-2352040D01*
G01X5607918Y-2331061D01*
G01X5602468Y-2310719D01*
G01X5593568Y-2291633D01*
G01X5581489Y-2274382D01*
G01X5566598Y-2259491D01*
G01X5549347Y-2247412D01*
G01X5530261Y-2238512D01*
G01X5509919Y-2233062D01*
G01X5488940Y-2231226D01*
G01X5488940Y-2231226D01*
G01X5467961Y-2233062D01*
G01X5447619Y-2238512D01*
G01X5428533Y-2247412D01*
G01X5411282Y-2259491D01*
G01X5396391Y-2274382D01*
G01X5384312Y-2291633D01*
G01X5375412Y-2310719D01*
G01X5369962Y-2331061D01*
G01X5368126Y-2352040D01*
G01X3074834Y-2352040D01*
G01X3072998Y-2331061D01*
G01X3067548Y-2310719D01*
G01X3058648Y-2291633D01*
G01X3046569Y-2274382D01*
G01X3031678Y-2259491D01*
G01X3014427Y-2247412D01*
G01X2995341Y-2238512D01*
G01X2974999Y-2233062D01*
G01X2954020Y-2231226D01*
G01X2954020Y-2231226D01*
G01X2933041Y-2233062D01*
G01X2912699Y-2238512D01*
G01X2893613Y-2247412D01*
G01X2876362Y-2259491D01*
G01X2861471Y-2274382D01*
G01X2849392Y-2291633D01*
G01X2840492Y-2310719D01*
G01X2835042Y-2331061D01*
G01X2833206Y-2352040D01*
G01X2768629Y-2352040D01*
G01X2901815Y-2218854D01*
G01X3039020Y-2218854D01*
G01X3050087Y-2217101D01*
G01X3060071Y-2212014D01*
G01X3067994Y-2204091D01*
G01X3073081Y-2194107D01*
G01X3074834Y-2183040D01*
G01X3074834Y-2098040D01*
G01X5368126Y-2098040D01*
G01X5369962Y-2119019D01*
G01X5375412Y-2139361D01*
G01X5384312Y-2158447D01*
G01X5396391Y-2175698D01*
G01X5411282Y-2190589D01*
G01X5428533Y-2202668D01*
G01X5447619Y-2211568D01*
G01X5467961Y-2217018D01*
G01X5488940Y-2218854D01*
G01X5509919Y-2217018D01*
G01X5530261Y-2211568D01*
G01X5549347Y-2202668D01*
G01X5566598Y-2190589D01*
G01X5581489Y-2175698D01*
G01X5593568Y-2158447D01*
G01X5602468Y-2139361D01*
G01X5607918Y-2119019D01*
G01X5609754Y-2098040D01*
G01X5607918Y-2077061D01*
G01X5602468Y-2056719D01*
G01X5593568Y-2037633D01*
G01X5581489Y-2020382D01*
G01X5566598Y-2005491D01*
G01X5549347Y-1993412D01*
G01X5530261Y-1984512D01*
G01X5509919Y-1979062D01*
G01X5488940Y-1977226D01*
G01X5488940Y-1977226D01*
G01X5467961Y-1979062D01*
G01X5447619Y-1984512D01*
G01X5428533Y-1993412D01*
G01X5411282Y-2005491D01*
G01X5396391Y-2020382D01*
G01X5384312Y-2037633D01*
G01X5375412Y-2056719D01*
G01X5369962Y-2077061D01*
G01X5368126Y-2098040D01*
G01X3074834Y-2098040D01*
G01X3074834Y-2013040D01*
G01X3073081Y-2001973D01*
G01X3067994Y-1991989D01*
G01X3060071Y-1984066D01*
G01X3050087Y-1978979D01*
G01X3039020Y-1977226D01*
G01X2869020Y-1977226D01*
G01X2857953Y-1978979D01*
G01X2847969Y-1984066D01*
G01X2840046Y-1991989D01*
G01X2834959Y-2001973D01*
G01X2833206Y-2013040D01*
G01X2833206Y-2150245D01*
G01X2590753Y-2392698D01*
G01X2576724Y-2378435D01*
G01X2560383Y-2366895D01*
G01X2542248Y-2358447D01*
G01X2522901Y-2353358D01*
G01X2502956Y-2351793D01*
G01X2483052Y-2353800D01*
G01X2463822Y-2359316D01*
G01X2445879Y-2368165D01*
G01X2429797Y-2380065D01*
G01X2416089Y-2394635D01*
G01X2405191Y-2411412D01*
G01X2397451Y-2429859D01*
G01X2393115Y-2449390D01*
G01X2392324Y-2469380D01*
G01X2395101Y-2489192D01*
G01X2401357Y-2508194D01*
G01X2410895Y-2525780D01*
G01X2423408Y-2541389D01*
G01X2438499Y-2554523D01*
G01X2455685Y-2564763D01*
G01X2455685Y-2794637D01*
G01X2438163Y-2805121D01*
G01X2422836Y-2818612D01*
G01X2410212Y-2834660D01*
G01X2400711Y-2852734D01*
G01X2394649Y-2872232D01*
G01X2392227Y-2892507D01*
G01X2393526Y-2912884D01*
G01X2398502Y-2932687D01*
G01X2096620Y-3234569D01*
G01X2078754Y-3222227D01*
G01X2058966Y-3213283D01*
G01X2037897Y-3208026D01*
G01X2016227Y-3206625D01*
G01X1994657Y-3209126D01*
G01X1973883Y-3215448D01*
G01X1954576Y-3225387D01*
G01X1937359Y-3238621D01*
G01X1922791Y-3254723D01*
G01X1911340Y-3273173D01*
G01X1903376Y-3293376D01*
G01X1899158Y-3314677D01*
G01X1898821Y-3336389D01*
G01X1885327Y-3336389D01*
G01X1886114Y-3327400D01*
G01X1884278Y-3306421D01*
G01X1878828Y-3286079D01*
G01X1869928Y-3266993D01*
G01X1857849Y-3249742D01*
G01X1842958Y-3234851D01*
G01X1825707Y-3222772D01*
G01X1806621Y-3213872D01*
G01X1786279Y-3208422D01*
G01X1765300Y-3206586D01*
G01X1744321Y-3208422D01*
G01X1723979Y-3213872D01*
G01X1704893Y-3222772D01*
G01X1687642Y-3234851D01*
G01X1672751Y-3249742D01*
G01X1660672Y-3266993D01*
G01X1651772Y-3286079D01*
G01X1646322Y-3306421D01*
G01X1644486Y-3327400D01*
G01X1644486Y-3327400D01*
G01X1632114Y-3327400D01*
G01X1630278Y-3306421D01*
G01X1624828Y-3286079D01*
G01X1615928Y-3266993D01*
G01X1603849Y-3249742D01*
G01X1588958Y-3234851D01*
G01X1571707Y-3222772D01*
G01X1552621Y-3213872D01*
G01X1532279Y-3208422D01*
G01X1511300Y-3206586D01*
G01X1490321Y-3208422D01*
G01X1469979Y-3213872D01*
G01X1450893Y-3222772D01*
G01X1433642Y-3234851D01*
G01X1418751Y-3249742D01*
G01X1406672Y-3266993D01*
G01X1397772Y-3286079D01*
G01X1392322Y-3306421D01*
G01X1390486Y-3327400D01*
G01X1390486Y-3327400D01*
G01X1378114Y-3327400D01*
G01X1378114Y-3242400D01*
G01X1376361Y-3231333D01*
G01X1371274Y-3221349D01*
G01X1363351Y-3213426D01*
G01X1353367Y-3208339D01*
G01X1342300Y-3206586D01*
G01X1172300Y-3206586D01*
G01X1161233Y-3208339D01*
G01X1151249Y-3213426D01*
G01X1143326Y-3221349D01*
G01X1138239Y-3231333D01*
G01X1136486Y-3242400D01*
G01X1136486Y-3412400D01*
G01X1138239Y-3423467D01*
G01X1143326Y-3433451D01*
G01X1151249Y-3441374D01*
G01X1161233Y-3446461D01*
G01X1172300Y-3448214D01*
G01X1208786Y-3448214D01*
G01X1208786Y-3778086D01*
G01X1208786Y-3778086D01*
G01X1185000Y-3778086D01*
G01X1173933Y-3779839D01*
G01X1163949Y-3784926D01*
G01X1156026Y-3792849D01*
G01X1150939Y-3802833D01*
G01X1149186Y-3813900D01*
G01X1149186Y-3983900D01*
G01X1150939Y-3994967D01*
G01X1156026Y-4004951D01*
G01X1163949Y-4012874D01*
G01X1173933Y-4017961D01*
G01X1185000Y-4019714D01*
G01X1208786Y-4019714D01*
G01X1208786Y-4330700D01*
G01X1210439Y-4343256D01*
G01X1215286Y-4354957D01*
G01X1222995Y-4365005D01*
G01X1321877Y-4463886D01*
G01X1172300Y-4463886D01*
G01X1161233Y-4465639D01*
G01X1151249Y-4470726D01*
G01X1143326Y-4478649D01*
G01X1138239Y-4488633D01*
G01X1136486Y-4499700D01*
G01X1026160Y-4499700D01*
G01X1026160Y-2895600D01*
G01X1092187Y-2895600D01*
G01X1094095Y-2916183D01*
G01X1099751Y-2936064D01*
G01X1108965Y-2954568D01*
G01X1121422Y-2971063D01*
G01X1136698Y-2984989D01*
G01X1154272Y-2995871D01*
G01X1173547Y-3003338D01*
G01X1193866Y-3007136D01*
G01X1214537Y-3007136D01*
G01X1234855Y-3003338D01*
G01X1254130Y-2995871D01*
G01X1271705Y-2984989D01*
G01X1286981Y-2971063D01*
G01X1299438Y-2954568D01*
G01X1308651Y-2936064D01*
G01X1314308Y-2916183D01*
G01X1316215Y-2895600D01*
G01X1314308Y-2875017D01*
G01X1308651Y-2855136D01*
G01X1299438Y-2836632D01*
G01X1286981Y-2820137D01*
G01X1271705Y-2806211D01*
G01X1254130Y-2795329D01*
G01X1234855Y-2787862D01*
G01X1214537Y-2784064D01*
G01X1193866Y-2784064D01*
G01X1173547Y-2787862D01*
G01X1154272Y-2795329D01*
G01X1136698Y-2806211D01*
G01X1121422Y-2820137D01*
G01X1108965Y-2836632D01*
G01X1099751Y-2855136D01*
G01X1094095Y-2875017D01*
G01X1092187Y-2895600D01*
G01X1092187Y-2895600D01*
G01X1026160Y-2895600D01*
G01X1026160Y-2463800D01*
G01X1092187Y-2463800D01*
G01X1094095Y-2484383D01*
G01X1099751Y-2504264D01*
G01X1108965Y-2522768D01*
G01X1121422Y-2539263D01*
G01X1136698Y-2553189D01*
G01X1154272Y-2564071D01*
G01X1173547Y-2571538D01*
G01X1193866Y-2575336D01*
G01X1214537Y-2575336D01*
G01X1234855Y-2571538D01*
G01X1254130Y-2564071D01*
G01X1271705Y-2553189D01*
G01X1286981Y-2539263D01*
G01X1299438Y-2522768D01*
G01X1308651Y-2504264D01*
G01X1314308Y-2484383D01*
G01X1316215Y-2463800D01*
G01X1314308Y-2443217D01*
G01X1308651Y-2423336D01*
G01X1299438Y-2404832D01*
G01X1286981Y-2388337D01*
G01X1271705Y-2374411D01*
G01X1254130Y-2363529D01*
G01X1234855Y-2356062D01*
G01X1214537Y-2352264D01*
G01X1193866Y-2352264D01*
G01X1173547Y-2356062D01*
G01X1154272Y-2363529D01*
G01X1136698Y-2374411D01*
G01X1121422Y-2388337D01*
G01X1108965Y-2404832D01*
G01X1099751Y-2423336D01*
G01X1094095Y-2443217D01*
G01X1092187Y-2463800D01*
G01X1092187Y-2463800D01*
G01X1026160Y-2463800D01*
G01X1026160Y-1738687D01*
G01X1719586Y-1738687D01*
G01X1719586Y-2088686D01*
G01X1721339Y-2099754D01*
G01X1726426Y-2109737D01*
G01X1734349Y-2117661D01*
G01X1744333Y-2122748D01*
G01X1755400Y-2124500D01*
G01X2105400Y-2124500D01*
G01X2116467Y-2122748D01*
G01X2126451Y-2117661D01*
G01X2134374Y-2109737D01*
G01X2139461Y-2099754D01*
G01X2141214Y-2088686D01*
G01X2141214Y-1738687D01*
G01X2141214Y-1738687D01*
G01X2139461Y-1727620D01*
G01X2134374Y-1717636D01*
G01X2126451Y-1709713D01*
G01X2116467Y-1704626D01*
G01X2105400Y-1702873D01*
G01X1755400Y-1702873D01*
G01X1744333Y-1704626D01*
G01X1734349Y-1709713D01*
G01X1726426Y-1717636D01*
G01X1721339Y-1727620D01*
G01X1719586Y-1738687D01*
G01X1026160Y-1738687D01*
G01X1026160Y-1399301D01*
G01X1720078Y-1399301D01*
G01X1720078Y-1428074D01*
G01X1723996Y-1456579D01*
G01X1731759Y-1484285D01*
G01X1743222Y-1510676D01*
G01X1758172Y-1535260D01*
G01X1776330Y-1557579D01*
G01X1797358Y-1577218D01*
G01X1820865Y-1593811D01*
G01X1846412Y-1607048D01*
G01X1873523Y-1616684D01*
G01X1901694Y-1622538D01*
G01X1930400Y-1624501D01*
G01X1930400Y-1624501D01*
G01X1959106Y-1622538D01*
G01X1987277Y-1616684D01*
G01X2014388Y-1607048D01*
G01X2039935Y-1593811D01*
G01X2063442Y-1577218D01*
G01X2084470Y-1557579D01*
G01X2102628Y-1535260D01*
G01X2117578Y-1510676D01*
G01X2129041Y-1484285D01*
G01X2136804Y-1456579D01*
G01X2140722Y-1428074D01*
G01X2140722Y-1399301D01*
G01X2136804Y-1370796D01*
G01X2129041Y-1343091D01*
G01X2117578Y-1316700D01*
G01X2102628Y-1292116D01*
G01X2084470Y-1269796D01*
G01X2063442Y-1250157D01*
G01X2039935Y-1233565D01*
G01X2014388Y-1220327D01*
G01X1987277Y-1210692D01*
G01X1959106Y-1204838D01*
G01X1930400Y-1202874D01*
G01X1901694Y-1204838D01*
G01X1873523Y-1210692D01*
G01X1846412Y-1220327D01*
G01X1820865Y-1233565D01*
G01X1797358Y-1250157D01*
G01X1776330Y-1269796D01*
G01X1758172Y-1292116D01*
G01X1743222Y-1316700D01*
G01X1731759Y-1343091D01*
G01X1723996Y-1370796D01*
G01X1720078Y-1399301D01*
G01X1026160Y-1399301D01*
G01X1026160Y-1102360D01*
G01X1090508Y-1102360D01*
G01X1091946Y-1123788D01*
G01X1096743Y-1144722D01*
G01X1104780Y-1164637D01*
G01X1115857Y-1183037D01*
G01X1129695Y-1199461D01*
G01X1145949Y-1213497D01*
G01X1164213Y-1224797D01*
G01X1184029Y-1233075D01*
G01X1204903Y-1238127D01*
G01X1226312Y-1239825D01*
G01X1247721Y-1238127D01*
G01X1268595Y-1233075D01*
G01X1288411Y-1224797D01*
G01X1306675Y-1213497D01*
G01X1322929Y-1199461D01*
G01X1336767Y-1183037D01*
G01X1347844Y-1164637D01*
G01X1355881Y-1144722D01*
G01X1360678Y-1123788D01*
G01X1362116Y-1102360D01*
G37*
G54D10*
G01X1362116Y-1102360D02*
G01X5448082Y-1102360D01*
G03X5583136Y-1252525I135054J-14351D01*
G03X5718190Y-1102360I0J135814D01*
G01X5755640Y-1102360D01*
G01X5755640Y-5781040D01*
G01X1026160Y-5781040D01*
G01X1026160Y-1102360D01*
G01X1090508Y-1102360D01*
G03X1226312Y-1239825I135804J-1651D01*
G03X1362116Y-1102360I0J135814D01*
G01X1092187Y-2463800D02*
G03X1316215Y-2463800I112014J0D01*
G03X1092187Y-2463800I-112014J0D01*
G01X1092187Y-2895600D02*
G03X1316215Y-2895600I112014J0D01*
G03X1092187Y-2895600I-112014J0D01*
G01X1329600Y-5429414D02*
G03X1365414Y-5393600I0J35814D01*
G01X1365414Y-5223600D01*
G03X1329600Y-5187786I-35814J0D01*
G01X1159600Y-5187786D01*
G03X1123786Y-5223600I0J-35814D01*
G01X1123786Y-5393600D01*
G03X1159600Y-5429414I35814J0D01*
G01X1329600Y-5429414D01*
G01X1208786Y-3778086D02*
G01X1185000Y-3778086D01*
G03X1149186Y-3813900I0J-35814D01*
G01X1149186Y-3983900D01*
G03X1185000Y-4019714I35814J0D01*
G01X1208786Y-4019714D01*
G01X1208786Y-4330700D01*
G03X1222995Y-4365005I48514J0D01*
G01X1321877Y-4463886D01*
G01X1172300Y-4463886D01*
G03X1136486Y-4499700I0J-35814D01*
G01X1136486Y-4669700D01*
G03X1172300Y-4705514I35814J0D01*
G01X1342300Y-4705514D01*
G03X1378114Y-4669700I0J35814D01*
G01X1378114Y-4520123D01*
G01X1398757Y-4540767D01*
G03X1462786Y-4695345I112543J-43933D01*
G01X1462786Y-5193217D01*
G03X1484715Y-5428613I35814J-115383D01*
G03X1559814Y-5204442I13885J120013D01*
G01X1559814Y-4811014D01*
G01X2841650Y-4811014D01*
G03X2875955Y-4796805I0J48514D01*
G01X2918270Y-4754489D01*
G03X3030958Y-4546616I34480J115789D01*
G03X2844070Y-4691471I-78208J-92084D01*
G01X2821555Y-4713986D01*
G01X1569495Y-4713986D01*
G01X1559814Y-4704305D01*
G01X1559814Y-4695345D01*
G03X1622917Y-4538467I-48514J110645D01*
G03X1467367Y-4472157I-111617J-46233D01*
G01X1305814Y-4310605D01*
G01X1305814Y-4019714D01*
G01X1355000Y-4019714D01*
G03X1390814Y-3983900I0J35814D01*
G01X1390814Y-3813900D01*
G03X1355000Y-3778086I-35814J0D01*
G01X1305814Y-3778086D01*
G01X1305814Y-3448214D01*
G01X1342300Y-3448214D01*
G03X1378114Y-3412400I0J35814D01*
G01X1378114Y-3242400D01*
G03X1342300Y-3206586I-35814J0D01*
G01X1172300Y-3206586D01*
G03X1136486Y-3242400I0J-35814D01*
G01X1136486Y-3412400D01*
G03X1172300Y-3448214I35814J0D01*
G01X1208786Y-3448214D01*
G01X1208786Y-3778086D01*
G01X1390486Y-3327400D02*
G03X1632114Y-3327400I120814J0D01*
G03X1390486Y-3327400I-120814J0D01*
G01X1403186Y-3898900D02*
G03X1644814Y-3898900I120814J0D01*
G03X1403186Y-3898900I-120814J0D01*
G01X1631786Y-5308600D02*
G03X1873414Y-5308600I120814J0D01*
G03X1631786Y-5308600I-120814J0D01*
G01X1644486Y-4584700D02*
G03X1886114Y-4584700I120814J0D01*
G03X1644486Y-4584700I-120814J0D01*
G01X1644486Y-3327400D02*
G03X1886114Y-3327400I120814J0D01*
G03X1644486Y-3327400I-120814J0D01*
G01X1657186Y-3898900D02*
G03X1898814Y-3898900I120814J0D01*
G03X1657186Y-3898900I-120814J0D01*
G01X1930400Y-1624501D02*
G03X1930400Y-1202874I0J210814D01*
G03X1930400Y-1624501I0J-210814D01*
G01X2141214Y-1738687D02*
G03X2105400Y-1702873I-35814J0D01*
G01X1755400Y-1702873D01*
G03X1719586Y-1738687I0J-35814D01*
G01X1719586Y-2088686D01*
G03X1755400Y-2124500I35814J0D01*
G01X2105400Y-2124500D01*
G03X2141214Y-2088686I0J35814D01*
G01X2141214Y-1738687D01*
G01X1885786Y-5308600D02*
G03X2127414Y-5308600I120814J0D01*
G03X1885786Y-5308600I-120814J0D01*
G01X1898486Y-4584700D02*
G03X2140114Y-4584700I120814J0D01*
G03X1898486Y-4584700I-120814J0D01*
G01X1909709Y-3378251D02*
G03X2140110Y-3328297I109591J50851D01*
G01X2467112Y-3001296D01*
G03X2607686Y-2938466I37087J105696D01*
G03X2552713Y-2794637I-103487J42866D01*
G01X2552713Y-2564763D01*
G03X2606861Y-2508606I-48514J100963D01*
G03X2622565Y-2498105I-18601J44806D01*
G01X2901815Y-2218854D01*
G01X3039020Y-2218854D01*
G03X3074834Y-2183040I0J35814D01*
G01X3074834Y-2013040D01*
G03X3039020Y-1977226I-35814J0D01*
G01X2869020Y-1977226D01*
G03X2833206Y-2013040I0J-35814D01*
G01X2833206Y-2150245D01*
G01X2590753Y-2392698D01*
G03X2416089Y-2394635I-86554J-71102D01*
G03X2455685Y-2564763I88110J-69165D01*
G01X2455685Y-2794637D01*
G03X2398502Y-2932687I48514J-100963D01*
G01X2096620Y-3234569D01*
G03X1909709Y-3378251I-77320J-92831D01*
G01X1911186Y-3898900D02*
G03X2152814Y-3898900I120814J0D01*
G03X1911186Y-3898900I-120814J0D01*
G01X2139786Y-5308600D02*
G03X2381414Y-5308600I120814J0D01*
G03X2139786Y-5308600I-120814J0D01*
G01X2152486Y-4584700D02*
G03X2394114Y-4584700I120814J0D01*
G03X2152486Y-4584700I-120814J0D01*
G01X2952750Y-5533887D02*
G03X2952750Y-5775514I0J-120814D01*
G03X2952750Y-5533887I0J120814D01*
G01X2952750Y-5025887D02*
G03X2952750Y-5267514I0J-120814D01*
G03X2952750Y-5025887I0J120814D01*
G01X2952750Y-5279887D02*
G03X2952750Y-5521514I0J-120814D01*
G03X2952750Y-5279887I0J120814D01*
G01X2952750Y-4771887D02*
G03X2952750Y-5013514I0J-120814D01*
G03X2952750Y-4771887I0J120814D01*
G01X2952750Y-4263887D02*
G03X2952750Y-4505514I0J-120814D01*
G03X2952750Y-4263887I0J120814D01*
G01X2952750Y-4009887D02*
G03X2952750Y-4251514I0J-120814D01*
G03X2952750Y-4009887I0J120814D01*
G01X2952750Y-3755887D02*
G03X2952750Y-3997514I0J-120814D01*
G03X2952750Y-3755887I0J120814D01*
G01X2952750Y-3501887D02*
G03X2952750Y-3743514I0J-120814D01*
G03X2952750Y-3501887I0J120814D01*
G01X2952750Y-2485887D02*
G03X2952750Y-2727514I0J-120814D01*
G03X2952750Y-2485887I0J120814D01*
G01X2952750Y-2993887D02*
G03X2952750Y-3235514I0J-120814D01*
G03X2952750Y-2993887I0J120814D01*
G01X2952750Y-2739887D02*
G03X2952750Y-2981514I0J-120814D01*
G03X2952750Y-2739887I0J120814D01*
G01X2952750Y-3247887D02*
G03X2952750Y-3489514I0J-120814D01*
G03X2952750Y-3247887I0J120814D01*
G01X2954020Y-2231226D02*
G03X2954020Y-2472854I0J-120814D01*
G03X2954020Y-2231226I0J120814D01*
G01X5487670Y-5533887D02*
G03X5487670Y-5775514I0J-120814D01*
G03X5487670Y-5533887I0J120814D01*
G01X5487670Y-5025887D02*
G03X5487670Y-5267514I0J-120814D01*
G03X5487670Y-5025887I0J120814D01*
G01X5487670Y-4771887D02*
G03X5487670Y-5013514I0J-120814D01*
G03X5487670Y-4771887I0J120814D01*
G01X5487670Y-5279887D02*
G03X5487670Y-5521514I0J-120814D01*
G03X5487670Y-5279887I0J120814D01*
G01X5487670Y-4009887D02*
G03X5487670Y-4251514I0J-120814D01*
G03X5487670Y-4009887I0J120814D01*
G01X5487670Y-3755887D02*
G03X5487670Y-3997514I0J-120814D01*
G03X5487670Y-3755887I0J120814D01*
G01X5487670Y-3501887D02*
G03X5487670Y-3743514I0J-120814D01*
G03X5487670Y-3501887I0J120814D01*
G01X5487670Y-4263887D02*
G03X5487670Y-4505514I0J-120814D01*
G03X5487670Y-4263887I0J120814D01*
G01X5487670Y-4517887D02*
G03X5487670Y-4759514I0J-120814D01*
G03X5487670Y-4517887I0J120814D01*
G01X5487670Y-2485887D02*
G03X5487670Y-2727514I0J-120814D01*
G03X5487670Y-2485887I0J120814D01*
G01X5487670Y-2739887D02*
G03X5487670Y-2981514I0J-120814D01*
G03X5487670Y-2739887I0J120814D01*
G01X5487670Y-2993887D02*
G03X5487670Y-3235514I0J-120814D01*
G03X5487670Y-2993887I0J120814D01*
G01X5487670Y-3247887D02*
G03X5487670Y-3489514I0J-120814D01*
G03X5487670Y-3247887I0J120814D01*
G01X5488940Y-1977226D02*
G03X5488940Y-2218854I0J-120814D01*
G03X5488940Y-1977226I0J120814D01*
G01X5488940Y-2231226D02*
G03X5488940Y-2472854I0J-120814D01*
G03X5488940Y-2231226I0J120814D01*
G54D11*
G01X1667854Y-5308600D02*
G01X1641946Y-5308600D01*
G01X1837346Y-5308600D02*
G01X1863254Y-5308600D01*
G01X1752600Y-5223854D02*
G01X1752600Y-5197946D01*
G01X1752600Y-5393346D02*
G01X1752600Y-5419254D01*
G01X1680554Y-3327400D02*
G01X1654646Y-3327400D01*
G01X1850046Y-3327400D02*
G01X1875954Y-3327400D01*
G01X1765300Y-3242654D02*
G01X1765300Y-3216746D01*
G01X1765300Y-3412146D02*
G01X1765300Y-3438054D01*
G01X1680554Y-4584700D02*
G01X1654646Y-4584700D01*
G01X1850046Y-4584700D02*
G01X1875954Y-4584700D01*
G01X1765300Y-4499954D02*
G01X1765300Y-4474046D01*
G01X1765300Y-4669446D02*
G01X1765300Y-4695354D01*
G01X1693254Y-3898900D02*
G01X1667346Y-3898900D01*
G01X1862746Y-3898900D02*
G01X1888654Y-3898900D01*
G01X1778000Y-3814154D02*
G01X1778000Y-3788246D01*
G01X1778000Y-3983646D02*
G01X1778000Y-4009554D01*
G01X1930400Y-2088432D02*
G01X1930400Y-2114340D01*
G01X1930400Y-1738941D02*
G01X1930400Y-1713033D01*
G01X1755654Y-1913687D02*
G01X1729746Y-1913687D01*
G01X2105146Y-1913687D02*
G01X2131054Y-1913687D01*
G01X2952750Y-2775955D02*
G01X2952750Y-2750047D01*
G01X2952750Y-2945446D02*
G01X2952750Y-2971354D01*
G01X3037496Y-2860700D02*
G01X3063404Y-2860700D01*
G01X2868004Y-2860700D02*
G01X2842096Y-2860700D01*
G01X2954020Y-2267294D02*
G01X2954020Y-2241386D01*
G01X2954020Y-2436786D02*
G01X2954020Y-2462694D01*
G01X3038766Y-2352040D02*
G01X3064674Y-2352040D01*
G01X2869274Y-2352040D02*
G01X2843366Y-2352040D01*
G04 Copper End*

G04 Pad Start*
G54D12*
G01X1257300Y-3327400D03*
G54D13*
G01X1511300Y-3327400D03*
G01X1765300Y-3327400D03*
G01X2019300Y-3327400D03*
G01X2952750Y-5654700D03*
G01X2952750Y-5400700D03*
G01X2952750Y-5146700D03*
G01X2952750Y-4892700D03*
G01X2952750Y-4638700D03*
G01X2952750Y-4384700D03*
G01X2952750Y-4130700D03*
G01X2952750Y-3876700D03*
G01X2952750Y-3622700D03*
G01X2952750Y-3368700D03*
G01X2952750Y-3114700D03*
G01X2952750Y-2860700D03*
G01X2952750Y-2606700D03*
G01X2954020Y-2352040D03*
G54D12*
G01X2954020Y-2098040D03*
G54D13*
G01X5487670Y-5654700D03*
G01X5487670Y-5400700D03*
G01X5487670Y-5146700D03*
G01X5487670Y-4892700D03*
G01X5487670Y-4638700D03*
G01X5487670Y-4384700D03*
G01X5487670Y-4130700D03*
G01X5487670Y-3876700D03*
G01X5487670Y-3622700D03*
G01X5487670Y-3368700D03*
G01X5487670Y-3114700D03*
G01X5487670Y-2860700D03*
G01X5487670Y-2606700D03*
G01X5488940Y-2352040D03*
G01X5488940Y-2098040D03*
G01X2273300Y-4584700D03*
G01X2019300Y-4584700D03*
G01X1765300Y-4584700D03*
G01X1511300Y-4584700D03*
G54D12*
G01X1257300Y-4584700D03*
G01X1270000Y-3898900D03*
G54D13*
G01X1524000Y-3898900D03*
G01X1778000Y-3898900D03*
G01X2032000Y-3898900D03*
G01X2260600Y-5308600D03*
G01X2006600Y-5308600D03*
G01X1752600Y-5308600D03*
G01X1498600Y-5308600D03*
G54D12*
G01X1244600Y-5308600D03*
G54D14*
G01X1226312Y-1104011D03*
G01X5583136Y-1116711D03*
G01X1240460Y-6095111D03*
G01X5597284Y-6095111D03*
G54D15*
G01X1930400Y-1913687D03*
G54D16*
G01X1930400Y-1413688D03*
G54D18*
G01X2504199Y-2463800D03*
G01X1204201Y-2463800D03*
G01X2504199Y-2895600D03*
G01X1204201Y-2895600D03*
G04 Pad End*

G04 Track Start*
G54D11*
G01X1257300Y-3327400D02*
G01X1257300Y-4330700D01*
G01X1511300Y-4584700D01*
G01X1511300Y-5295900D02*
G01X1498600Y-5308600D01*
G01X2019300Y-3327400D02*
G01X2072399Y-3327400D01*
G01X2504199Y-2895600D01*
G01X2504199Y-2463800D01*
G01X2588260Y-2463800D01*
G01X2954020Y-2098040D01*
G01X1511300Y-4724400D02*
G01X1549400Y-4762500D01*
G01X2841650Y-4762500D01*
G01X2901950Y-4702200D01*
G01X2901950Y-4689500D01*
G01X2952750Y-4638700D01*
G01X1511300Y-4724400D02*
G01X1511300Y-5295900D01*
G01X1511300Y-4584700D02*
G01X1511300Y-4724400D01*
G04 Track End*

M02*

